<?xml version="1.0" standalone="no"?>
<!DOCTYPE svg PUBLIC "-//W3C//DTD SVG 1.1//EN" "http://www.w3.org/Graphics/SVG/1.1/DTD/svg11.dtd" >
<svg xmlns="http://www.w3.org/2000/svg" xmlns:xlink="http://www.w3.org/1999/xlink" version="1.1">
<metadata>
Created by FontForge 20160405 at Wed Jan  4 06:11:37 2017
 By www-data
Created by MyScriptFont.com
</metadata>
<defs>
<font id="MWHeart" horiz-adv-x="10" >
  <font-face 
    font-family="MWHeart"
    font-weight="500"
    font-stretch="normal"
    units-per-em="1000"
    panose-1="2 0 6 3 0 0 0 0 0 0"
    ascent="800"
    descent="-200"
    x-height="498"
    cap-height="589"
    bbox="8.95238 -132.235 927.491 696.9"
    underline-thickness="50"
    underline-position="-200"
    unicode-range="U+0020-20AC"
  />
<missing-glyph horiz-adv-x="364" 
d="M33 0v666h265v-666h-265zM66 33h199v600h-199v-600z" />
    <glyph glyph-name=".notdef" horiz-adv-x="364" 
d="M33 0v666h265v-666h-265zM66 33h199v600h-199v-600z" />
    <glyph glyph-name=".null" horiz-adv-x="0" 
 />
    <glyph glyph-name="nonmarkingreturn" horiz-adv-x="333" 
 />
    <glyph glyph-name="space" unicode=" " horiz-adv-x="420" 
 />
    <glyph glyph-name="exclam" unicode="!" 
 />
    <glyph glyph-name="numbersign" unicode="#" 
 />
    <glyph glyph-name="dollar" unicode="$" 
 />
    <glyph glyph-name="percent" unicode="%" 
 />
    <glyph glyph-name="ampersand" unicode="&#x26;" 
 />
    <glyph glyph-name="quotesingle" unicode="'" 
 />
    <glyph glyph-name="parenleft" unicode="(" 
 />
    <glyph glyph-name="parenright" unicode=")" 
 />
    <glyph glyph-name="asterisk" unicode="*" 
 />
    <glyph glyph-name="plus" unicode="+" 
 />
    <glyph glyph-name="comma" unicode="," 
 />
    <glyph glyph-name="hyphen" unicode="-" 
 />
    <glyph glyph-name="period" unicode="." 
 />
    <glyph glyph-name="slash" unicode="/" 
 />
    <glyph glyph-name="zero" unicode="0" 
 />
    <glyph glyph-name="one" unicode="1" 
 />
    <glyph glyph-name="two" unicode="2" 
 />
    <glyph glyph-name="three" unicode="3" 
 />
    <glyph glyph-name="four" unicode="4" 
 />
    <glyph glyph-name="five" unicode="5" 
 />
    <glyph glyph-name="six" unicode="6" 
 />
    <glyph glyph-name="seven" unicode="7" 
 />
    <glyph glyph-name="eight" unicode="8" 
 />
    <glyph glyph-name="nine" unicode="9" 
 />
    <glyph glyph-name="colon" unicode=":" 
 />
    <glyph glyph-name="semicolon" unicode=";" 
 />
    <glyph glyph-name="less" unicode="&#x3c;" 
 />
    <glyph glyph-name="equal" unicode="=" 
 />
    <glyph glyph-name="greater" unicode="&#x3e;" 
 />
    <glyph glyph-name="question" unicode="?" 
 />
    <glyph glyph-name="at" unicode="@" 
 />
    <glyph glyph-name="A" unicode="A" horiz-adv-x="762" 
d="M566 658q31 17 65.5 12t63.5 -21.5t45 -45t10 -58.5q-8 -39 -46 -112t-85 -139q-78 -110 -102.5 -151.5t-23.5 -63.5q2 -46 -28 -45q-52 2 -254 170q-10 8 -21 17q-85 72 -120 107.5t-47.5 63.5t-12.5 70q0 35 4.5 52t17.5 33q17 20 31 23.5t75 2.5q46 0 73.5 -5
t36.5 -11t25 -14.5t38 -13.5q18 -4 29 -14t16.5 -18.5t11.5 -8.5q8 0 49 56q30 41 62.5 70.5t49.5 29.5q11 0 37 14zM674 594q-10 15 -21 18.5t-41 3.5q-46 -1 -62.5 -8t-51.5 -41q-62 -59 -75 -139q-4 -25 -9 -30t-23 -4q-19 2 -35 17t-42.5 39.5t-60.5 41.5q-51 26 -56 34
t-55 8q-31 0 -43.5 -4.5t-24.5 -19.5q-17 -22 -17.5 -52t16.5 -58q7 -12 33.5 -37.5t55.5 -49.5l110 -90q61 -53 95 -73.5t54.5 -17t39.5 32.5q9 15 16 27.5t10 18t11.5 17t24.5 31.5q57 69 111 164.5t54 126.5q0 22 -14 44z" />
    <glyph glyph-name="B" unicode="B" horiz-adv-x="582" 
d="M334 516q48 57 103.5 73t107.5 -19q20 -14 24 -22.5t1 -30.5q-6 -50 -33.5 -93t-91.5 -104q-34 -33 -58.5 -60.5t-24.5 -31.5q0 -12 67 -82q38 -39 55.5 -63t24.5 -48q7 -26 7 -37t-7 -19q-24 -29 -45 39q-7 26 -52.5 81.5t-69.5 68.5q-23 12 -34.5 -3.5t-6.5 -52.5
q9 -73 53 -109l22 -19h-30q-30 -1 -60 26q-21 19 -25 32t-3 62q2 68 5 90q2 15 -8 24t-47 28q-57 29 -91 43q-40 16 -67.5 48.5t-35.5 72.5q-5 31 -3 43t16 30q22 30 68.5 41.5t93.5 0t72 -41.5q14 -16 28 -10t45 43zM507 508q-2 14 -9.5 18t-34.5 6q-28 2 -39.5 -2.5
t-30.5 -24.5q-63 -69 -55 -104q5 -20 -8 -31.5t-39 -8.5q-16 2 -21.5 8t-6.5 24q-4 35 -32 56t-77 27q-50 5 -72.5 -5t-22.5 -37q0 -23 32 -62.5t50 -39.5q15 0 37 -15q26 -18 65 -38t49 -20q6 0 41 30.5t75.5 70.5t71 83.5t27.5 64.5z" />
    <glyph glyph-name="C" unicode="C" horiz-adv-x="694" 
d="M469 117q0 -8 -18.5 -28t-18.5 -28q0 -1 -3.5 -9.5t-11 -20.5t-20 -19.5t-31 -9t-42.5 12.5q-31 16 -142.5 135t-131.5 158q-15 28 -27.5 71t-12.5 67q0 29 20 57.5t45 33.5q50 10 138.5 -22.5t110.5 -69.5q9 -14 21.5 -11.5t18.5 18.5q7 24 49.5 82t62.5 72
q52 36 117 37q40 1 65.5 -26t25.5 -67q-1 -48 -18.5 -92.5t-68.5 -128.5q-64 -105 -64 -111q0 -4 -32 -48.5t-32 -52.5zM629 575q-26 40 -101 5q-24 -11 -60 -47.5t-36 -49.5q0 -2 -13.5 -35.5t-15.5 -51.5q-3 -23 -28 -31q-17 -6 -29.5 0t-25.5 20.5t-30 31t-52.5 34.5
t-82.5 28q-43 9 -71 3t-28 -24q0 -19 17 -68.5t28 -61.5q11 -14 28.5 -39.5t30 -41.5t17.5 -16q7 0 15 -21q9 -22 88 -88.5t91 -61.5q11 4 39 55.5t36 60.5q7 8 14.5 21t18.5 35t22 40q14 23 23.5 41t16.5 30.5t10 22t5.5 14.5t1 10.5t-2 6t-4.5 5l-4 4.5q-10 11 -11 17
t6 15q9 11 5 21.5t-19 10.5q-31 0 -12 31q16 25 35 32q3 1 5 1q12 0 26.5 -17.5t14.5 -31.5q0 -22 14 -12q8 7 18 26q13 27 13 41.5t-13 34.5z" />
    <glyph glyph-name="D" unicode="D" horiz-adv-x="843" 
d="M388 276q46 29 59 15q3 -3 3 -8q0 -14 -27 -33t-45 -19q-20 0 -19 12q1 15 29 33zM364 20q-9 0 -28.5 18.5t-25.5 18.5q-7 0 -30 18t-38 23q-16 4 -22.5 -4t-12 -22t-13.5 -19q-10 -6 -10 -22q0 -20 -11.5 -28t-27.5 2q-18 11 -22 1q-27 -73 -58 -73q-15 0 -21.5 7.5
t-12.5 28.5t-13 36q-7 13 1 18t41 8q26 3 35.5 18.5t-7.5 28.5q-13 9 -12 12.5t16 11.5q16 9 42 6.5t37 7.5q12 9 2 23t-68 71q-61 60 -78 89t-17 72t40.5 84t92.5 50q40 8 121 -0.5t95.5 -21.5t24.5 -13q6 0 35.5 27.5t67 61t59.5 43.5q35 16 79.5 12.5t67.5 -24.5
q20 -20 30.5 -15t1.5 30q-16 42 19 40q30 -2 60 -25q24 -18 27.5 -27.5t-1.5 -39.5q-8 -58 -23 -59q-9 0 -21 16q-15 19 -19.5 19.5t-17 -13t-21.5 -58.5t-22 -63q-17 -24 -17 -38q0 -10 -18.5 -29.5t-18.5 -28.5q0 -7 -26 -48t-57.5 -90.5t-40.5 -70.5q-13 -33 -23 -33
t-23 -33q-14 -32 -28.5 -36.5t-44.5 13.5q-33 19 -45 19zM680 506q0 9 -5 21t-16 23.5t-26.5 17t-40.5 -2t-54 -31.5q-44 -37 -80 -83q-28 -35 -53.5 -44t-44.5 10q-13 13 -52.5 24.5t-86.5 15.5q-38 3 -56.5 0.5t-44.5 -16.5q-31 -16 -36.5 -25.5t-7.5 -49.5
q-2 -31 1 -46.5t13 -25.5q24 -28 98 -87t98 -70q25 -12 42.5 -27.5t27.5 -15.5q14 0 37 -19q21 -16 32.5 -16t23 15.5t33.5 61.5q7 14 15.5 25t19 23t38 55t66.5 111q9 17 19 30q11 13 25.5 59.5t14.5 66.5z" />
    <glyph glyph-name="E" unicode="E" horiz-adv-x="745" 
d="M295 504q99 112 186 72q2 -1 3 -1q24 -10 28.5 -18.5t4.5 -45.5q0 -32 -5.5 -52t-15 -42.5t-15.5 -44.5q-4 -15 -10 -36q-9 -30 -6 -35.5t29 -5.5q19 0 34 -4.5t23 -9.5t15 -9t14.5 -2.5t16.5 10.5q18 15 31 15t24 11q9 9 37 3.5t39 -18.5q13 -16 2.5 -50.5t-40.5 -79.5
q-61 -88 -93.5 -102t-65.5 34q-15 21 -40 47t-41 42.5t-16 24.5q0 28 -16 15q-11 -10 -24 -38q-25 -52 -61.5 -67t-58.5 18q-16 24 -66 72.5t-103 92.5q-53 43 -75.5 79t-19.5 74q2 20 9 32.5t24 25.5q22 16 34 17.5t59 -8.5q63 -14 90 -39l26 -25zM458 459q5 13 7.5 22
t2.5 21.5t-10 20t-30 9.5q-17 2 -30 -5.5t-38 -32.5t-44.5 -55t-28.5 -45.5t-17 -15.5q-12 0 -50 42q-22 25 -38.5 35.5t-40.5 14.5q-36 7 -59.5 -3.5t-23.5 -31.5q0 -15 42.5 -59.5t107.5 -97.5l88 -72q23 -20 30 -20q4 -1 43 77.5t60 128.5zM673 240q0 25 -24 17
q-23 -7 -30 -27q-1 -4 -1 -8q0 -22 -16 -23.5t-35 18.5q-17 18 -45.5 23t-37.5 -9q-5 -9 33 -54.5t56 -51.5q20 -6 44.5 18.5t40 54.5t15.5 42z" />
    <glyph glyph-name="F" unicode="F" horiz-adv-x="810" 
d="M446 401q35 26 53 29.5t41 -11.5q25 -18 18 -55.5t-48 -103.5q-13 -20 -37 -43t-32 -23q-7 0 -35 18.5t-47 19.5q-24 1 -60 21q-25 13 -31 22t-5 30q2 33 23.5 48.5t68.5 15.5q31 0 47.5 5.5t43.5 26.5zM501 360q-8 12 -18 6t-28 -34q-23 -37 -33 -37q-7 0 -45.5 19
t-51.5 8q-12 -9 -3.5 -22.5t26.5 -13.5q10 0 25 -8.5t46 -13.5q28 -5 34.5 -1.5t13.5 25.5q7 18 17.5 34t15 23.5t1.5 14.5zM502 520q68 19 105 8.5t53 -53.5q9 -23 8 -40t-12 -65q-14 -59 -32 -92.5t-23 -54.5q-5 -25 -32 -77.5t-45 -73.5q-8 -9 -21.5 -12t-32 1.5
t-35 10.5t-41 16t-39.5 14q-40 14 -92.5 49t-89.5 74q-32 33 -38 47t-6 53q0 44 18.5 81.5t51.5 58.5q26 17 73.5 24t81.5 -2q18 -5 29.5 -5.5t22 3t20 8t30.5 12.5t46 15zM361 158q8 0 46 -14t60 -14q18 0 26.5 9t25.5 44l34 70q15 30 31 81.5t19 80.5q3 24 0.5 34.5
t-12.5 17.5q-12 9 -43.5 11t-51.5 -5q-14 -5 -37 -26q-22 -20 -52 -24t-42 12q-8 10 -19.5 10.5t-52.5 -7.5q-56 -11 -69.5 -19t-26.5 -39q-14 -33 -8.5 -71t25.5 -56q29 -25 83 -60t64 -35zM522 -108q-13 0 -73.5 27.5t-78.5 27.5q-10 0 -54.5 19t-93.5 45q-30 15 -93.5 73
t-63.5 69q0 8 -14 24t-19 41q-6 32 -14 37q-9 6 -7.5 66t12.5 106q13 57 53.5 96.5t89 56t99 22.5t85 3.5t45.5 -7.5q15 -6 22.5 -6t12 3t20.5 11t38 15q42 13 111 13t80 -13q11 -14 31 -14q31 0 60 -44t30 -93q1 -35 -14 -92t-28 -73q-8 -9 -19.5 -45t-31.5 -75
q-15 -30 -24.5 -58t-13.5 -41t-8 -15q-6 -5 -32 -58q-22 -45 -55.5 -83t-51.5 -38zM677 555q-33 16 -95 15q-49 -1 -70 -5.5t-64 -23.5q-24 -11 -33 -11.5t-25 10.5q-15 10 -32.5 11t-68.5 -6q-100 -13 -147 -44.5t-59 -94.5q-21 -113 12 -177q21 -41 78.5 -95.5t99.5 -73.5
q23 -10 37.5 -19t18 -13t9.5 -6t19 -2q19 0 43 -13.5t46 -13.5q29 0 45 -19q17 -18 29 -16.5t24 23.5l33 62q21 41 43.5 89.5t22.5 54.5q0 7 35 83l51 111q23 54 8.5 103t-60.5 71z" />
    <glyph glyph-name="G" unicode="G" horiz-adv-x="698" 
d="M447 20q-30 0 -93.5 34.5t-117 69t-57.5 34.5q-11 0 -61.5 37.5t-62.5 54.5q-13 18 -22 50.5t-15 36.5q-22 13 11 77q21 40 50.5 58t79.5 23q36 2 56.5 -1.5t53.5 -18.5q87 -38 89 -14q0 12 42.5 54.5t67.5 55.5q33 16 85.5 17t76.5 -14q38 -25 52.5 -86t-7.5 -104
q-14 -26 -14 -36q0 -18 -39 -87.5t-88 -139.5q-39 -56 -48 -78q-5 -14 -13 -18.5t-26 -4.5zM560 482q0 42 -9 47q-12 8 -20 -23t-15.5 -84t-15.5 -76q-13 -37 -13 -57q0 -14 -18.5 -67t-16.5 -69l3 -21l24 20q15 11 24 31t19 62q38 154 38 237zM467 409q7 9 14 51t-2 50
q-10 6 -39 -31t-37 -66q-6 -25 -16 -38t-10 -37q0 -13 -5.5 -39t-11.5 -51.5t-11 -51t-4 -42.5t10 -21q16 -6 28.5 16.5t25.5 64.5t23 59q12 22 20.5 75.5t14.5 60.5zM241.5 427.5q-5.5 5.5 -30 5.5t-30.5 -5q-4 -5 -5 -23t-3 -50t-7 -60q-9 -41 4 -54q14 -14 28 -1t14 39
q0 23 9.5 67.5t17.5 60.5q8 15 2.5 20.5zM133 386q1 29 -9 33.5t-30 -16.5q-35 -38 -9 -94q18 -39 33 -10q13 25 15 87zM601 371q7 -7 18 15q13 26 -1 28q-1 1 -2 1q-8 0 -14.5 -19t-0.5 -25zM319 394q-8 12 -21 12q-11 0 -15.5 -10t-16.5 -59q-18 -78 -15 -124t26 -46
q12 0 25.5 55t17.5 105.5t-1 66.5z" />
    <glyph glyph-name="H" unicode="H" horiz-adv-x="700" 
d="M380 144q5 11 18 13.5t19 -7.5t-1.5 -28.5t-17.5 -18.5q-12 0 -17.5 13.5t-0.5 27.5zM252 209q13 19 21.5 21t20.5 -12q14 -17 7.5 -36.5t-28.5 -21.5q-24 -3 -30 11.5t9 37.5zM352 225q-14 12 -8 28t30 13t28.5 -18t-16.5 -26q-12 -7 -19 -6.5t-15 9.5zM468 272
q11 27 26.5 23t15.5 -35q0 -52 -35 -26q-10 7 -11.5 14.5t4.5 23.5zM116 303q13 18 21.5 19t19.5 -13q11 -13 5 -28t-20 -18.5t-27 7.5q-9 8 -8.5 14t9.5 19zM231 306q11 16 18 19.5t14 -3.5q13 -10 13 -32.5t-13 -27.5t-32 5l-20 11zM561 420q11 14 31 11q13 -2 18.5 -16
t-0.5 -28.5t-19 -16.5q-20 -3 -31 16t1 34zM474 416q15 15 19.5 14.5t18.5 -21.5q10 -16 10 -22t-12 -18q-6 -7 -14.5 -11t-13.5 -2q-16 7 -18.5 26t10.5 34zM309 20q-9 0 -28.5 18.5t-26.5 18.5q-12 0 -82.5 46.5t-94.5 71.5q-28 28 -47.5 64.5t-19.5 60.5q0 21 22.5 58
t40.5 47q18 9 85.5 17t76.5 2q11 -8 67.5 -18.5t64.5 -5.5q10 6 42 55q30 45 50 63.5t53 29.5q44 15 94.5 -0.5t68.5 -49.5q17 -35 14.5 -83t-11 -87t-16.5 -51q-112 -181 -171 -245q-31 -33 -31 -60q0 -38 -30 -27q-18 6 -54 33q-56 42 -67 42zM618 481q-43 45 -102.5 17
t-96.5 -110q-25 -56 -40 -57q-60 -5 -93 21q-13 10 -32.5 13.5t-64.5 3.5q-53 0 -66.5 -3.5t-26.5 -21.5q-25 -34 -24.5 -51.5t26.5 -52.5q20 -25 52.5 -49.5t101.5 -65.5q120 -71 141 -89.5t28 -10.5q61 73 123 167t80 142q20 55 19 88.5t-25 58.5z" />
    <glyph glyph-name="I" unicode="I" horiz-adv-x="727" 
d="M393 475q33 52 92.5 82.5t87.5 31.5q21 0 62.5 -17.5t59.5 -35.5q18 -16 21 -26.5t-2 -38.5q-5 -35 -17 -67.5t-22 -38.5q-6 -4 -8 -12.5t-16 -35.5t-46 -68q-50 -63 -50 -68q0 -9 -72 -85t-80 -76q-6 0 -42.5 23t-87 55.5t-73.5 45.5q-18 11 -32 20t-21 14.5t-12 9.5
t-8 5t-5 1q-11 0 -46.5 40t-47.5 66q-16 34 -17.5 72t11.5 68q18 45 82 61t114 -12q21 -12 56 -22.5t43 -19.5q15 -20 35 -12.5t41 40.5zM519 475q8 43 5.5 46t-41 -25t-38.5 -33t23 -27q23 -21 33 -13t18 52zM660 457q4 25 1 33.5t-18 19.5q-20 13 -22.5 7.5t-1.5 -52.5
q2 -61 19 -60q14 1 22 52zM582 432q0 38 -14 38q-5 0 -9 -4t-4 -10q0 -12 -11 -35.5t-27.5 -65t-25.5 -90.5q-13 -61 0.5 -61t62.5 65q43 56 48.5 69t-5.5 31q-15 25 -15 63zM199 437q-5 5 -26.5 5t-31.5 -25l-19 -51q-6 -15 -5.5 -22.5t7.5 -14.5q11 -11 15 -1q1 5 18 31.5
t31 50.5t11 27zM87 412q0 11 -6 11q-10 -1 -16 -20q-6 -23 -5 -47t8 -24q5 0 12 28.5t7 51.5zM286 405q-2 11 -12.5 16t-15.5 -4q-6 -8 -9.5 -31.5t-3.5 -43t5 -19.5q9 0 24 33.5t12 48.5zM380 345.5q0 5.5 -2.5 10t-6 4.5t-6.5 -4.5t-3 -10t3 -9.5t6.5 -4t6 4t2.5 9.5z
M424 199q15 33 19 101q2 44 -9 42q-7 -2 -19 -25l-29 -54q-15 -27 -15 -38q0 -8 -8 -25t-14.5 -31t-3 -32.5t22.5 -33.5q23 -18 31 -17t26 27q16 20 16.5 26.5t-11.5 19.5q-9 10 -10.5 18t4.5 22zM199 270q5 57 -7 60q-5 1 -10 -13q-7 -17 -26 -43q-14 -19 -14 -24.5
t13 -14.5q23 -17 32 -10t12 45zM279 284q0 -9 -18 -46.5t-18 -52.5q0 -16 13.5 -23.5t24.5 3.5q4 4 10 22t11.5 42t9.5 47.5t3.5 39.5t-6.5 16q-7 0 -18.5 -18.5t-11.5 -29.5z" />
    <glyph glyph-name="J" unicode="J" horiz-adv-x="715" 
d="M489 515q32 18 91 18q48 1 72.5 -9.5t38.5 -37.5q11 -18 13.5 -49.5t-5.5 -36.5t-8 -31q0 -21 -17 -40.5t-21 -27.5q-17 -37 -104 -150t-100 -133q-14 -23 -35.5 -24t-40.5 11t-50.5 32t-54.5 29q-25 10 -56 33t-47 27q-20 6 -70 44q-47 36 -66 77.5t-19 108.5
q-1 100 45 129t135 -16q54 -27 66 -27q7 0 12.5 -7.5t17 -19t28.5 -19.5q22 -9 32.5 -3t53.5 48q57 56 89 74zM645 434q0 14 -7 27.5t-14.5 20t-9.5 5.5q-1 -1 -13 -2.5t-27.5 -7.5t-26.5 -18q-12 -13 -10.5 -19t22.5 -24q25 -21 28.5 -42t-11.5 -51t-4 -33q9 -2 16 16
q1 1 1 2q9 22 19 29q11 6 24 40.5t13 56.5zM157 427q-100 26 -100 -70q0 -41 25.5 -90t56.5 -67l30 -17l22 26q21 26 20.5 48t-22.5 54q-14 22 -17.5 35.5t0.5 36.5q4 26 1.5 33t-16.5 11zM507 397q-31 27 -40 27q-11 -1 -31 -19t-34 -39q-11 -18 -10.5 -25t14.5 -26
q17 -23 15 -52.5t-21 -51.5q-11 -12 -9.5 -19t19.5 -30q25 -32 33 -32q7 0 44.5 46.5t37.5 55.5q0 8 -5.5 22t-6 26t10.5 48l15 43zM271 359q-21 17 -29 18t-18.5 -12t-0.5 -19.5t32 -41.5q15 -25 16.5 -34t-7.5 -27q-15 -28 -14 -66t17 -43q8 -2 52.5 -21t55.5 -19
q18 0 10 19q-4 11 -17 23q-26 23 -29.5 40.5t12.5 51.5q18 43 18 45q0 5 -32 36.5t-36 31.5q-7 0 -30 18z" />
    <glyph glyph-name="K" unicode="K" horiz-adv-x="938" 
d="M382 21q6 9 62 7q34 -2 46 -6t14 -14q3 -15 -20.5 -24.5t-40.5 -0.5q-6 3 -26.5 11.5t-29 14.5t-5.5 12zM641 87q13 14 32.5 13.5t22.5 -16.5q3 -14 -26.5 -48t-45.5 -34q-18 0 -18 8q0 12 12 38.5t23 38.5zM234 129q6 10 22 8t33 -9.5t29.5 -19.5t10.5 -22
q-1 -6 -7 -11.5t-14 -6.5q-18 -3 -49.5 23.5t-24.5 37.5zM98 233q-3 16 -0.5 21t13.5 5q18 0 48 -27q19 -17 22 -24.5t-5 -16.5q-12 -15 -24 -15q-14 0 -31.5 18.5t-22.5 38.5zM774 259q36 13 33 -10q-2 -18 -27 -53q-42 -57 -59 -29q-7 11 15 48t38 44zM838 367
q19 19 42.5 5t14.5 -40q-4 -15 -29.5 -31t-33 -8.5t-5.5 37t11 37.5zM10 379q0 47 7.5 48t19.5 -44q9 -32 6 -46t-20 -14q-7 0 -10 12t-3 44zM868 532q4 12 30 9q41 -4 25 -68q-3 -13 -9.5 -17t-20.5 -3q-16 2 -20.5 8t-6.5 27q-2 32 2 44zM577 552q33 17 55 22t63 5
q48 1 60.5 -3t29.5 -26q36 -48 16 -104.5t-111 -160.5q-70 -79 -110 -135q-38 -53 -62 -64.5t-59 7.5q-48 25 -75.5 44t-108.5 82q-63 50 -89.5 76t-37.5 50q-39 85 30 135q24 17 41 21.5t57 4.5q61 0 71 -10q12 -12 76 -48q21 -12 27 -12t12 11q16 28 47.5 57t67.5 48z
M735 506q-9 16 -35.5 17t-59 -13t-63 -33.5t-51.5 -45.5t-21 -48q0 -14 -23 -29q-16 -11 -24.5 -8t-38.5 31q-40 37 -70.5 51t-69.5 14q-72 0 -81.5 -36t48.5 -94q43 -44 52 -44q6 0 17.5 -10t42.5 -33.5t74 -47.5l68 -38l17 21q12 15 18.5 29t29 45t75.5 92q65 75 86.5 115
t8.5 65zM490 597q9 10 17 5t8 -21q0 -15 -28.5 -36t-41.5 -16q-15 5 -10.5 21.5t24.5 26.5q21 10 31 20zM71 589q23 15 31 16.5t13 -6.5q14 -23 -42 -61q-36 -25 -46 -15q-10 9 3.5 29t40.5 37zM218 637q5 8 48 5q28 -2 35 -6t7 -19q0 -16 -5.5 -19.5t-26.5 -1.5
q-25 2 -45 16t-13 25zM776 653q15 17 27.5 17.5t40 -13t32 -22t-6.5 -23.5q-8 -10 -16.5 -11t-35.5 7q-41 12 -48.5 20t7.5 25zM592 668q5 14 44 11q24 -2 32 -6.5t10 -15.5q3 -19 -25 -31q-36 -15 -54.5 -2t-6.5 44z" />
    <glyph glyph-name="L" unicode="L" horiz-adv-x="743" 
d="M397 491q37 42 82.5 59.5t155.5 27.5q15 2 55 -28q29 -22 35 -33.5t8 -49.5q3 -51 -8 -71q-13 -25 -103 -136.5t-110 -138.5q-41 -57 -71 -74t-54 4q-10 10 -54 32.5t-95 47.5t-65 32q-24 13 -75 60t-51 56t-18.5 32.5t-18.5 78.5q0 99 61 130.5t164 -14.5q61 -27 71 -27
t30 -18l19 -19z" />
    <glyph glyph-name="M" unicode="M" horiz-adv-x="661" 
d="M459 586q55 18 111.5 7t74.5 -43q12 -20 6 -54.5t-19.5 -69.5t-33.5 -72t-35.5 -62t-26.5 -40q-22 -29 -22 -37.5t-33 -52.5q-25 -32 -29.5 -50t-6.5 -84q-2 -81 -15 -109.5t-47 -24.5l-29 2l3 83v6q1 21 1.5 30t-1 22.5t-2.5 18t-8.5 15t-12 13.5t-20 13t-26.5 15.5
t-36 18.5q-6 3 -8 5q-161 83 -210 180q-58 115 22 172q17 13 35.5 17t53.5 4q41 0 64 -6.5t79 -33.5q20 -10 33 -6t25 23q19 31 53 61t60 39zM579 525q-7 11 -19 14.5t-45 3.5q-39 0 -51.5 -6t-44.5 -39q-17 -19 -29.5 -38t-12.5 -26q0 -16 -7 -21t-35 -11q-20 -3 -26 -1.5
t-16 8t-18 13.5t-32 15t-59 13q-50 6 -63 4t-31 -19q-25 -24 -25 -42q0 -24 48.5 -88.5t66.5 -64.5q8 0 24.5 -15.5t38.5 -25.5q15 -8 50 -26.5t57.5 -29t26.5 -8.5q11 7 78 110.5t90 148.5q29 57 36 85t-2 46z" />
    <glyph glyph-name="N" unicode="N" horiz-adv-x="706" 
d="M559 259q-17 0 -26.5 -9.5t-22.5 -9.5q-20 0 -39 -26.5t-27 -67.5q-9 -43 -19.5 -56.5t-40.5 -19.5q-20 -4 -27.5 3t-26.5 44q-18 35 -33.5 50.5t-56.5 38.5q-63 34 -80 34q-12 0 -22 8.5t-30 12.5q-43 9 -83 105q-35 84 11 152q19 28 52 40t91 12q44 0 67 -8t95 -47
q14 -7 32 1t37.5 24t48.5 30.5t65 20t87 -7.5q14 -3 49 -39q25 -24 30 -38.5t6 -59.5q1 -41 -3 -58.5t-19 -38.5q-23 -34 -59 -62t-56 -28zM612 502q-16 23 -27.5 30.5t-34.5 8.5q-36 3 -78.5 -24.5t-66.5 -69.5q-24 -41 -32 -46q-12 -7 -34 5t-22 25q0 23 -37.5 48.5
t-85.5 32.5t-94 -19q-20 -14 -22 -44t10.5 -60.5t38 -56.5t54.5 -32q22 -5 64.5 -32.5t53.5 -27.5q16 0 45 -24l30 -25l19 26q25 35 50.5 55t43.5 25.5t45.5 15t49.5 23.5q23 14 30.5 27t14.5 48q8 40 6 52t-21 39z" />
    <glyph glyph-name="O" unicode="O" horiz-adv-x="475" 
d="M134 226q0 4 -36.5 60t-36.5 65q0 11 -12 26q-14 17 -28.5 68t-9.5 66q13 36 37 46t51 -1.5t52 -28.5t46.5 -32.5t28.5 -15.5q8 0 75 59t83 62q37 7 59 -7t22 -45q0 -25 -12.5 -59.5t-24.5 -41.5q-4 -3 -6.5 -5.5t-4.5 -7t-8.5 -16t-16 -28t-29.5 -48t-46 -70.5
q-42 -64 -51 -91q-9 -26 -25.5 -30.5t-34 6.5t-34 26t-27.5 28.5t-11 14.5zM410 531q0 19 -30 9q-23 -7 -43 -27q-24 -23 -42 -52.5t-29.5 -42t-30.5 -12.5q-25 0 -40 22q-12 19 -54.5 48.5t-57.5 29.5q-5 0 -9 -4t-4 -9q0 -15 20 -63.5t31 -61.5q13 -15 13 -25t38.5 -61
t45.5 -51q5 0 62.5 85t79.5 126q11 20 24.5 40.5t19.5 30.5t6 18z" />
    <glyph glyph-name="P" unicode="P" horiz-adv-x="840" 
d="M562 617q31 1 57 7.5t36 8.5t29.5 -7.5t54.5 -37.5q32 -27 43 -27t30 -26q41 -57 -7.5 -174.5t-153.5 -218.5q-79 -76 -88.5 -76t-31.5 -24l-23 -25l-120 5q-77 4 -107 8.5t-56 18.5q-36 18 -81.5 57.5t-62.5 68.5q-16 26 -33.5 52t-22 32t-10 24t-5.5 33v54
q0 74 12 98.5t56 43.5q24 10 46.5 12.5t47.5 -3.5t43.5 -12.5t50.5 -19.5t54 -20l34 -12l52 58q48 53 85 77t71 25zM648 581.5q0 7.5 -12 6.5q-91 -10 -132 -37q-22 -14 -49.5 -42t-44.5 -52t-11 -28q9 -5 17 8q15 27 70 65t99 52q63 20 63 27.5zM88 417q0 -30 27.5 -96.5
t27.5 -67.5q0 -12 27 -33t72 -43q32 -16 163 -59q42 -13 61 -14t34.5 10t42.5 45q150 189 150 290q0 33 -3.5 42t-19.5 15q-20 8 -32 8t-41 -8q-36 -9 -63.5 -29.5t-84.5 -79.5q-26 -28 -41 -41.5t-27.5 -22.5t-20.5 -5.5t-15 11.5t-17 27q-30 58 -146 85q-31 7 -43.5 6.5
t-27.5 -9.5q-23 -15 -23 -31zM749 400.5q0 5.5 -3 10t-6.5 4.5t-6.5 -4.5t-3 -10t3 -9.5t6.5 -4t6.5 4t3 9.5z" />
    <glyph glyph-name="Q" unicode="Q" horiz-adv-x="861" 
d="M300 -13q6 15 17 13t35 -22q18 -15 21.5 -22t-3.5 -15q-10 -13 -21 -13q-14 0 -33.5 24t-15.5 35zM451 -72q-8 7 13 32.5t46.5 47t30.5 21.5q34 0 5 -38q-7 -8 -16 -19q-34 -35 -51.5 -45t-27.5 1zM162 87q8 19 26 14.5t31 -28.5q6 -14 9.5 -22t3.5 -13t-3 -7t-10 -2
q-17 0 -39 23t-18 35zM684 137q47 47 53 20q1 -3 1 -7q0 -15 -25 -35.5t-43 -20.5q-19 0 -11 13q5 9 25 30zM26 227q5 13 15.5 14.5t22.5 -9.5t22 -31q21 -45 16 -50q-3 -2 -15 -2q-16 0 -41.5 32t-19.5 46zM813 367q11 11 17.5 10.5t16.5 -13.5q12 -14 -6 -54.5t-39 -46.5
q-21 -7 -25 1t9 30q16 27 16 44.5t11 28.5zM23 430q10 11 20.5 8.5t8.5 -15.5q-4 -32 -12 -54.5t-16 -24.5q-8 -3 -12 11q-8 31 5 63q3 8 6 12zM424 448q28 24 41.5 28.5t20.5 -7.5q7 -11 -34.5 -52.5t-52.5 -34.5q-29 18 25 66zM258 483q6 6 27 1q97 -24 54 -61
q-9 -7 -18.5 -4t-32.5 18q-27 19 -33 27.5t3 18.5zM753 556q19 18 53 -23q20 -24 22.5 -34.5t-11.5 -16t-34 8.5t-29.5 34.5t-0.5 30.5zM87 549q12 15 35.5 11t23.5 -21q0 -11 -5 -14.5t-18 -1.5q-42 4 -42 14q0 4 6 12zM604 571q29 7 47 5t18 -14q0 -7 -10.5 -13t-31.5 -13
t-33 -13q-17 -8 -28.5 -3.5t-11.5 19.5q0 11 11 18t39 14z" />
    <glyph glyph-name="R" unicode="R" horiz-adv-x="626" 
d="M89 563q34 18 52 21.5t60 0.5q41 -4 66.5 -12.5t31.5 -13.5t18.5 -3.5t40.5 14.5q27 13 44.5 15.5t50.5 -1.5q73 -9 118.5 -55t44.5 -109q-1 -53 -13.5 -97t-26.5 -65.5t-25.5 -40t-11.5 -27.5q0 -26 -65 -102.5t-88 -76.5q-5 0 -12 4.5t-21 17.5t-31 29.5t-51 48
t-72 65.5q-57 50 -91.5 84.5t-58 64.5t-31.5 55.5t-7.5 49.5t10.5 54q12 35 23 47.5t45 31.5zM285 508q0 1 -7.5 7t-22.5 13t-32.5 11.5t-41.5 1t-46 -16.5q-59 -35 -70 -65t14 -85q15 -31 42 -59.5t107 -97.5q70 -60 75 -73.5t17.5 -13.5t38.5 -27l26 -27l35 28
q30 23 60.5 83t39.5 71q19 26 19 51q0 18 14 45t19 59q4 28 -1 39t-36 40q-25 24 -42 32.5t-43 11.5q-44 5 -65 -3q-15 -6 -17.5 -15t2.5 -48q4 -44 -6.5 -72.5t-31.5 -28.5q-9 0 -19 -4.5t-15.5 -8.5t-13.5 -4.5t-13 6.5q-11 11 4 77t10 73z" />
    <glyph glyph-name="S" unicode="S" horiz-adv-x="692" 
d="M381 476q0 15 38 3q19 -6 36 -18q52 -33 98 -55q28 -13 38.5 -13.5t33.5 10.5q22 11 29 11t18 -11q10 -10 10.5 -17.5t-7.5 -27.5q-16 -41 -47 -65.5t-65 -24.5q-14 0 -32 -10t-59 -11q-32 0 -44 -4.5t-25 -20.5q-12 -15 -15 -25.5t1 -25.5q5 -19 12.5 -23t36.5 -4
q38 -1 55 -12.5t17 -37.5q0 -16 -9 -27t-34 -28q-40 -26 -63 -26.5t-48 25.5l-26 26l-26 -19q-15 -11 -23.5 -23t-9.5 -18.5t-6 -12.5t-12.5 -5.5t-29.5 2.5q-39 6 -46 11q-9 5 -6 36.5t14 47.5q13 19 26.5 19.5t23.5 -18.5q9 -18 20.5 -17t43.5 23q26 17 31.5 27.5
t5.5 41.5q0 27 -4 37.5t-16 16.5q-12 7 -20 4.5t-24 -17.5q-41 -39 -88 -9q-16 10 -25.5 9.5t-37.5 -14.5q-39 -19 -63.5 -11t-39.5 43q-14 33 -3.5 47t43.5 8q19 -4 26 -1t12 17q7 18 35.5 43.5t59.5 41.5q11 6 23 19t17 27q12 29 24 28t15 -31q1 -18 7.5 -24t27.5 -10
q22 -4 32.5 0.5t32.5 26.5q18 17 23.5 27t2 13t-9 10t-5.5 16zM455 384q0 21 -33 6q-15 -7 -32 -21q-23 -18 -40.5 -23t-68.5 -7q-77 -2 -80 -13q-3 -9 48.5 -35t88.5 -35q17 -5 28 4t43 51q46 62 46 73zM581 339q-15 2 -26 9.5t-16 14t-9 5.5q-10 0 -33.5 -23.5
t-27.5 -37.5q-8 -26 10 -25q13 1 30 17q15 14 27 19t30 3q33 -3 36 8q1 4 -6 7q-6 2 -15 3zM244 239q0 8 -46 32l-46 23l-19 -27q-7 -11 -18 -19t-18 -8q-20 0 -23 -12q-2 -8 8 -12q14 -5 47 20l33 25l28 -20q12 -9 25 -13t21 -1t8 12zM460 94q-6 9 -28 8.5t-28 -9.5
q-6 -10 4 -21q8 -5 21 -3t24 10t7 15z" />
    <glyph glyph-name="T" unicode="T" horiz-adv-x="631" 
d="M454 359q35 21 58 1.5t9 -57.5q-8 -20 -17 -24.5t-17 8.5q-6 9 -28 18q-19 7 -21 25.5t16 28.5zM243 66q-21 0 -55.5 18.5t-42.5 18.5q-20 0 -67 41.5t-58 70.5q-9 29 -9.5 47.5t8.5 37.5t18.5 32t21 30.5t16.5 31.5q8 26 47 55.5t65 29.5h31l-6 -40q-4 -29 -0.5 -37.5
t24.5 -19.5q24 -13 33.5 -18.5t23 -10t17.5 -5t14 3t15.5 7.5t18.5 15q29 21 40.5 41.5t9 36t-9 28.5t-11.5 26t-2 22q2 6 9 10.5t15 4.5q21 0 64 -25t49 -40q6 -17 28 -17q25 0 48 -24.5t23 -50.5q0 -35 -34 -97t-93 -136q-77 -95 -73 -120q2 -18 41 -23q55 -7 65 -34
t-30 -60q-30 -24 -64 -24t-47 25q-10 21 -15 25q-7 8 -67.5 -15.5t-78.5 -40.5q-15 -15 -23 -17.5t-21 3.5q-19 11 -41 5q-18 -4 -39 5t-21 21q0 9 33 50q20 24 31.5 31.5t25.5 6.5q15 -2 24.5 -12t12.5 -19t14.5 -12.5t30.5 7.5q16 8 61 26q46 17 48 34t-40 28
q-20 5 -32 10t-15 7.5t-10 4t-21 1.5zM459 452q15 -12 19 -1q4 9 -8 18q-14 12 -19 1q-3 -9 8 -18zM162 406q0 27 -3 27q-1 0 -13 -10.5t-21.5 -24t-1.5 -21.5q13 -13 26 -3.5t13 32.5zM558 360l3 41l-42 3q-29 2 -45.5 -5.5t-60.5 -41.5q-59 -46 -79 -53t-56 5
q-72 23 -123 21t-75 -28.5t-11 -70.5q9 -27 54.5 -64t70.5 -37q13 0 22.5 -5t31.5 -14.5t60 -16.5l59 -12l28 32q109 125 134 163t29 83zM465 -44q0 9 -13 9q-11 0 -18.5 -9.5t-1.5 -15.5q5 -5 19 1.5t14 14.5z" />
    <glyph glyph-name="U" unicode="U" horiz-adv-x="441" 
d="M326 532q22 12 50.5 10t41.5 -17q10 -11 12.5 -25t-1.5 -45q-3 -27 -7.5 -43t-8 -20t-6.5 -11.5t-3 -19.5q0 -22 -13 -46q-21 -41 -40.5 -86t-19.5 -55t-10 -22.5t-18 -12.5q-4 0 -36 28t-52 33q-36 7 -93.5 31.5t-80.5 42.5q-59 45 -5 105q19 21 34 26t72 8q53 3 67.5 7
t20.5 17q6 16 40 49.5t56 45.5zM372 445q0 36 -7.5 44.5t-28.5 -3.5q-46 -25 -62.5 -59t9.5 -48q13 -6 29 -31t24 -25q11 0 23.5 41t12.5 81zM212 364q-6 15 -14 19t-30 4q-55 -1 -89 -23t-18 -47q11 -17 73.5 -45.5t107.5 -36.5q23 -4 30 -1t13 20q11 27 -5 59.5t-38 29.5
q-12 -1 -18.5 3.5t-11.5 17.5z" />
    <glyph glyph-name="V" unicode="V" horiz-adv-x="598" 
d="M340 620q47 25 89 31t68 -8q17 -9 54 -55q26 -33 31.5 -48.5t5.5 -57.5q0 -30 -3 -47t-7.5 -25.5t-19.5 -32.5t-29 -51q-24 -48 -57 -80q-38 -38 -29 -61q5 -14 25 -11q22 2 38 16q18 17 33.5 5.5t17.5 -41.5q2 -23 -4.5 -31.5t-40.5 -25.5q-30 -15 -49 -18.5t-54 -0.5
q-40 3 -52.5 -0.5t-37.5 -28.5q-22 -21 -36.5 -27t-41.5 -6q-36 0 -63.5 15.5t-35.5 39.5q-3 11 -12 23.5t-14 21t-1 13.5q7 12 24.5 9.5t30.5 -17.5q15 -16 25.5 -16.5t27.5 14.5q18 16 14 32.5t-32 42.5q-148 140 -180 234q-18 54 -14 81.5t35 59.5q23 24 38.5 31.5
t52.5 11.5q55 6 99 -8l44 -15zM476 541q-12 10 -26.5 10t-31 -11.5t-30 -29t-24.5 -42t-14 -49.5q-3 -22 -8.5 -30t-17.5 -10q-22 -3 -35 9t-13 35q0 25 -19 40t-66 25q-48 11 -64 5.5t-16 -32.5q0 -23 16 -48.5t42 -42.5q57 -38 100 -79t45 -58q1 -10 5 -17.5t9 -7.5
q8 0 56.5 71.5t55.5 75.5q10 6 10 20t19 38q15 20 18 67.5t-11 60.5z" />
    <glyph glyph-name="W" unicode="W" horiz-adv-x="657" 
d="M157.5 199q4.5 12 21.5 13t28 -10q10 -10 2 -27t-22 -17t-24 14.5t-5.5 26.5zM81 245q23 27 45 0q12 -14 6.5 -27.5t-22.5 -13.5q-20 0 -30 14t1 27zM485 239q-16 29 4 36q16 7 27 -8q1 -2 2 -5q6 -14 -8 -28q-10 -9 -14 -8.5t-11 13.5zM551 327q5 12 19 13.5t21 -9.5
q7 -12 -9 -25t-26 -3t-5 24zM598 456q5 13 13 13t25 -12q15 -11 10 -26.5t-24 -15.5q-15 0 -23 12.5t-1 28.5zM324 521q11 8 16.5 8.5t12.5 -7.5q11 -10 6.5 -26.5t-17.5 -16.5q-12 0 -24 15q-7 9 -6 14t12 13zM454 530q48 19 56.5 19t28.5 -14q22 -17 26 -63
q3 -41 -14.5 -77.5t-84.5 -122.5l-40 -52l22 -16q16 -12 16.5 -17.5t-10.5 -23.5q-13 -20 -23.5 -18t-10.5 26q0 21 -6 27q-4 4 -16 -6.5t-22.5 -26t-10.5 -24.5q0 -16 -11 -27t-27 -11q-17 0 -21.5 11.5t4.5 30.5q8 14 7 21t-12 19q-15 17 -23 13t-3 -26q5 -20 -9 -32.5
t-29 0.5q-27 22 1 46q10 8 9.5 12.5t-11.5 15.5q-11 13 -46 23t-59 30q-20 17 -29.5 19.5t-26.5 -3.5q-36 -13 -42 9q-5 18 13 31q6 4 12 6q13 4 17 14.5t-4 18.5q-6 7 -19 -4q-7 -6 -14 -4t-18 13q-13 12 -14 18.5t7 15.5q11 14 41 10t41 8q7 9 4.5 13t-17.5 10
q-44 17 -6 36q11 6 17.5 4t15.5 -16q16 -24 32 -18.5t15 34.5q-1 19 3 24t19 5q17 0 20.5 -9.5t-2 -20.5t-7 -20.5t5.5 -9.5q4 0 10 7.5t9 16.5q10 26 26 21.5t14 -33.5q-3 -34 10 -35q8 0 14 18q7 18 19.5 22t25.5 -9q7 -7 19.5 3t42.5 32.5t65 35.5zM518 474
q-5 12 -28.5 13.5t-46.5 -8.5q-40 -17 -80 -92q-19 -36 -41 -43.5t-39 15.5q-14 18 -65.5 28.5t-71.5 -0.5q-17 -8 -17.5 -13t11.5 -34q11 -26 38.5 -42.5t104.5 -42.5q50 -17 62.5 -18t28.5 11q24 17 81 93t62 97q6 23 1 36zM320 412q12 11 -1 16q-9 4 -14 -5
q-7 -10 -0.5 -15t15.5 4zM576.5 559q6.5 18 24.5 20.5t24 -13.5q6 -15 -3 -32t-23 -18t-21.5 12t-1 31zM370 575q0 13 9.5 17.5t24 7t21.5 9.5t22 7.5t22 -5.5q8 -8 -1.5 -19.5t-24.5 -11.5q-21 0 -27 -15q-6 -16 -26 -11.5t-20 21.5zM507 613q27 20 40.5 9.5t-4.5 -37.5
q-14 -21 -22.5 -22t-19.5 19q-6 11 -5 17.5t11 13.5z" />
    <glyph glyph-name="X" unicode="X" horiz-adv-x="718" 
d="M537 456q45 12 71 12t53 -13q32 -15 42 -33t-1 -47t-43.5 -67.5t-93.5 -99.5q-46 -46 -82.5 -87t-41.5 -53q-11 -25 -29 -28.5t-47 12.5q-38 21 -157 48q-19 5 -44.5 22t-30.5 17q-11 0 -48.5 32.5t-56.5 56.5q-15 20 -17.5 30.5t4.5 31.5q4 13 16 29t25 26
q21 15 38 19.5t58 4.5q53 0 70.5 -10t44.5 -14q20 -3 34 -9t17.5 -10t11 -3.5t16 7t30.5 26.5q89 80 161 100zM645.5 422.5q-18.5 17.5 -28.5 18t-50 -13.5q-38 -14 -37 -23t42 -7q44 2 69 -5q27 -7 24 4q-1 9 -19.5 26.5zM517 358q-28 10 -49 10.5t-27 -8.5q-9 -15 14 -20
q12 -3 41 -4q52 -3 50 6q-2 6 -29 16zM617 332q13 0 8 10q-4 8 -14 8q-9 0 -9 -9t15 -9zM310 281q-30 26 -42 5q-6 -9 -103 -9q-93 -1 -93 -11q6 -16 46.5 -18t96 2.5t75.5 1.5q30 -4 35 3.5t-15 25.5zM577 278q-9 8 -89 11t-104 -4q-48 -14 -19 -21q18 -5 62 -5
q41 0 69.5 -5t36.5 -8.5t14.5 -2.5t18.5 12q18 17 11 23zM364 195.5q0 8.5 -110 8.5t-110 -8t18 -24q11 -10 19.5 -11.5t18 1t39.5 9t67 10.5q58 6 58 14.5zM423 120q16 18 4 21q-11 3 -65 0q-65 -3 -61 -15q2 -7 22 -15q29 -10 58 -7.5t42 16.5z" />
    <glyph glyph-name="Y" unicode="Y" horiz-adv-x="654" 
d="M323 382q26 21 42 22t37 -19q20 -19 21 -62.5t-17 -80.5q-10 -20 -16.5 -41t-8 -32t-7 -22t-12 -15t-26 -6t-46.5 -0.5t-75 5.5q-73 7 -104 14t-43 19.5t-12 38.5q0 27 22.5 46t51.5 26t57.5 10t40.5 -3q14 -4 25 9.5t29 42.5t41 48zM505 543q18 14 32.5 24t25 16t19.5 9
t14 4t11 0t8 -1.5t5.5 -3t4.5 -2.5q17 -10 18.5 -27.5t-9.5 -39.5t-24.5 -43t-26 -43.5t-15.5 -35.5q-1 -7 -8 -13t-17 -8q-27 -4 -111.5 23.5t-101.5 46.5q-15 15 -16 22t9 24q12 22 50.5 31.5t70.5 -1.5q17 -6 28 -3t33 21zM80 516q21 0 31 3.5t13.5 9t14 21.5t24.5 32
q21 22 32.5 24t31.5 -13q18 -12 20.5 -35t-9.5 -65q-11 -44 -31.5 -61t-60.5 -17q-35 0 -85.5 21.5t-50.5 35.5q0 18 20.5 31t49.5 13z" />
    <glyph glyph-name="Z" unicode="Z" horiz-adv-x="619" 
d="M445 554q33 12 52.5 14.5t25 -1.5t13 -9.5t18.5 -5.5q20 0 37.5 -27t17.5 -59q0 -23 -2.5 -32.5t-14 -24.5t-18.5 -29q-16 -28 -75 -99q-31 -37 -49 -57.5t-36.5 -37t-29.5 -22t-26.5 -6t-27.5 5t-32 17.5q-40 23 -56 23h-8.5t-8 2.5t-12 6.5t-25.5 13t-44 19
q-55 24 -83.5 45.5t-43.5 50.5q-13 26 -2.5 64.5t36.5 56.5q34 25 97.5 24.5t127.5 -26.5q20 -8 31 -3.5t48 37.5q51 45 90 60zM536 494q-9 21 -34 21.5t-49 -18.5q-23 -18 -34 -18t-48.5 -46.5t-37.5 -60.5q0 -5 9.5 -12.5t22.5 -13.5q26 -10 30.5 -24t-4 -26.5
t-15.5 -29.5t-2 -31q5 -13 7.5 -13t10.5 12q10 17 42.5 55t58 69.5t41 70t2.5 65.5zM229 427q-62 30 -118 5q-46 -20 -42 -59q2 -14 12 -29q12 -17 47 -36t68 -26q20 -4 42.5 -14.5t37 -19t16.5 -8.5q3 0 17.5 26.5t14.5 31.5q0 4 -37 28q-24 17 -28.5 24.5t1.5 23.5
q9 22 3.5 30.5t-34.5 22.5z" />
    <glyph glyph-name="bracketleft" unicode="[" 
 />
    <glyph glyph-name="backslash" unicode="\" 
 />
    <glyph glyph-name="bracketright" unicode="]" 
 />
    <glyph glyph-name="a" unicode="a" horiz-adv-x="870" 
d="M427 317q23 12 32.5 6t-1.5 -27q-11 -20 -30 -17q-22 3 -22.5 15t21.5 23zM443 150q-6 0 -40.5 27t-41.5 27q-14 0 -46 -30.5t-32 -43.5q0 -16 -15 -28q-9 -7 -12.5 -5.5t-6.5 14.5q-6 24 -27 16q-21 -9 -22 -35q0 -16 -10 -41l-9 -24l-21 19q-20 19 -31.5 9.5
t-11.5 -46.5q0 -33 -13 -34.5t-21 30.5q-8 29 -32 40q-26 13 -36 27t0 23q11 11 29 0q22 -14 52.5 -10t30.5 21q0 10 -26 30q-9 7 -13 11t-5 7t1.5 4.5t8.5 4.5q14 6 52.5 -6t49.5 1q15 12 13.5 24.5t-18.5 21.5q-12 7 -13.5 11t6.5 13q13 13 67.5 3.5t67.5 3.5
q8 8 5.5 13.5t-19.5 15.5q-43 27 -77.5 59t-50.5 60q-21 37 -20 49t28 29q84 51 184 -45l34 -33l60 61q43 43 59.5 53t51.5 14q30 4 43.5 2t22.5 -11q14 -12 29.5 -13.5t22.5 8.5q6 10 29 19q17 6 18 10.5t-10 22.5q-16 23 -11 36q4 8 17.5 9.5t48.5 -0.5q26 -2 38.5 -3
t23.5 -5.5t13 -8.5t1 -16t-6 -23.5l-15 -34.5q-18 -39 -33.5 -49t-33.5 8q-16 16 -57 -3.5t-80 -61.5q-48 -50 -60 -74q-14 -29 -69 -101t-62 -72zM596 446q3 24 -6.5 28t-36.5 -10q-55 -29 -91 -86q-15 -22 -24.5 -27.5t-33.5 -5.5q-22 1 -34 7t-28 24q-39 47 -86 57
q-38 8 -38 -20q0 -20 14.5 -39t31 -32.5t55 -41t63.5 -46.5q40 -32 52 -32q8 0 45.5 41t55.5 70q1 2 20.5 30t29.5 47.5t11 35.5z" />
    <glyph glyph-name="b" unicode="b" horiz-adv-x="704" 
d="M398 323q32 24 46.5 26t41.5 -13q18 -9 23 -17.5t5 -30.5q0 -30 -13.5 -53t-13.5 -31t-7 -17t-20 -32t-24 -59l-18 -57h-79q-57 0 -103 -3.5t-59.5 -4.5t-26 3t-29.5 18q-25 22 -28.5 50t15.5 52q16 20 66 35.5t90 13.5q43 -3 47 11q6 21 33.5 55.5t53.5 53.5zM468 301
q-11 13 -22 13q-10 0 -49 -39.5t-39 -49.5q0 -8 -7.5 -15t-13.5 -16.5t-2 -23.5q5 -22 -10 -27t-53 5q-24 7 -40.5 7t-44.5 -9q-70 -20 -38 -59q7 -9 28 -11t88 2q104 5 118 17q15 13 76 149q11 26 13 37.5t-4 19.5zM631 566q25 14 32.5 12.5t20.5 -20.5q30 -47 -35 -130
q-36 -46 -54.5 -58.5t-37.5 -3.5q-15 8 -45.5 10.5t-64 9t-60.5 23.5q-39 25 -37 43t46 40q74 37 119 14q13 -7 27 0t39.5 27.5t49.5 32.5zM652 506q0 20 -29 4q-21 -11 -39 -34q-24 -28 -32.5 -31.5t-31.5 4.5q-17 6 -36 9t-31 1.5t-12 -7.5q0 -10 31 -20t74 -15l57 -5
l24 42q25 42 25 52zM232 602q41 15 67 -13q14 -15 11.5 -48t-21.5 -68q-14 -26 -14 -42q0 -11 -10.5 -22.5t-16.5 -24.5q-5 -14 -18.5 -16.5t-69.5 -2.5q-85 2 -101 4.5t-31 17.5q-17 17 -18 39.5t16 36.5q16 14 73 24q52 9 66.5 18.5t34.5 50.5q21 41 32 46zM234 436
q40 94 26 108q-6 6 -15 0t-17 -21t-12 -33q-6 -30 -23.5 -37.5t-68.5 -3.5q-57 5 -64 -6q-12 -21 28 -28q21 -4 58 -5l75 -3z" />
    <glyph glyph-name="c" unicode="c" horiz-adv-x="653" 
d="M552 590q23 5 47.5 2t35.5 -13q9 -9 8.5 -63t-9.5 -66q-6 -7 -19 -42.5t-30 -72t-34 -49.5q-13 -11 -13 -19q0 -4 -12.5 -24.5t-28.5 -52.5t-23 -60q-11 -46 -24 -46q-21 0 -106.5 46.5t-156.5 96.5q-66 46 -81 52q-19 7 -50.5 50t-39.5 74q-7 22 -6 36.5t8 32.5
q9 21 21 29t47 18q60 16 103 3t108 -67q67 -57 67 -17q0 23 73 82t115 70zM589 534q-4 6 -27 9t-25 -3q-1 -1 -3 -68q-4 -103 27 -61q11 16 22.5 65t5.5 58zM495 472q5 18 3.5 28t-10 9.5t-19.5 -12.5q-17 -19 -8 -33q20 -33 34 8zM134 443q-15 30 -28 34t-30 -15
q-16 -18 -14 -37t23 -49t29 -33t23 15q15 16 14.5 34t-17.5 51zM262 405q3 19 -17 42t-29 23q-12 0 -13.5 -12t8.5 -23q13 -16 17 -34q2 -12 9.5 -16.5t15 1.5t9.5 19zM401 210q0 -10 -2 -20t-3.5 -15.5t-1.5 -9.5t3 -5.5t10 -1.5q18 0 46 53q16 31 22 54t6 61
q1 43 -2.5 56.5t-20.5 28.5q-23 22 -30 22q-10 0 -12.5 -8t5.5 -18q10 -12 8 -67.5t13 -71.5q13 -14 9 -18t-39 -15q-5 -1 -8 -8.5t-3 -16.5zM226 289q0 22 -21 42t-32 8q-13 -13 -10 -25t23 -27q23 -19 31.5 -18.5t8.5 20.5zM349 316q-33 34 -51 23q-8 -4 -8 -17
q0 -17 32 -50t42 -27q13 8 8 29.5t-23 41.5zM301 233q-31 24 -33 14q-1 -6 15 -22q22 -22 31.5 -17.5t-10.5 22.5q-2 1 -3 3z" />
    <glyph glyph-name="d" unicode="d" horiz-adv-x="460" 
d="M260 -110q-28 27 -5 42q18 12 34 1q5 -3 7 -8q5 -13 -6 -33l-11 -20zM320 297q45 37 67 41.5t45 -19.5q30 -30 10 -87t-102 -174q-38 -55 -59 -75t-38 -17.5t-41 28.5q-27 28 -76 61q-35 23 -70.5 61.5t-43.5 63.5q-7 17 7 39q9 14 22.5 17.5t60.5 3.5q42 0 72 -5.5
t39.5 -10.5t17.5 -4t19 13q17 19 70 64zM232 452q17 15 33.5 25t22.5 9q16 -3 19 -33.5t-11 -46.5q-8 -8 -14.5 -21.5t-11 -26.5t-10.5 -25t-13 -18.5t-18.5 -5.5t-25.5 12q-26 20 -40 20q-15 0 -36 21t-21 36q0 10 8.5 13.5t34.5 3.5q27 0 42 6.5t41 30.5zM189 539
q12 14 31 11q18 -2 21.5 -21t-11.5 -32q-9 -7 -15 -6t-18.5 13.5t-14 18.5t6.5 16zM179 639q12 14 24 14q13 0 23 -14t7 -29q-3 -16 -30 -16q-23 0 -30.5 14t6.5 31z" />
    <glyph glyph-name="e" unicode="e" horiz-adv-x="789" 
d="M634 604q26 14 46.5 11.5t44.5 -22.5q41 -34 51 -82.5t-9 -119.5q-10 -40 -30 -71.5t-75 -93.5q-95 -109 -108 -159q-9 -36 -24 -41q-23 -7 -125 43q-37 18 -122 62q-33 18 -42 18t-76 39q-74 43 -114.5 107.5t-40.5 138.5q0 30 5 41t26 27q43 32 127 19t172 -65
q55 -33 73.5 -36.5t31.5 14.5q15 21 15 38q0 14 32.5 51.5t45.5 37.5q14 0 96 43zM710 541q-15 17 -35.5 24t-26.5 -3q-5 -8 9 -19q16 -13 28.5 -42.5t12.5 -52.5q0 -30 -30 -59q-26 -26 -46.5 -28t-46.5 18q-20 16 -23 36.5t12 40.5q12 16 28 11t10 -24q-5 -17 4.5 -23
t27.5 4q19 10 16.5 29t-26.5 39q-26 22 -43.5 22.5t-35.5 -19.5q-33 -36 -38 -71t17 -81q15 -32 33.5 -44.5t50.5 -11.5q31 0 48 15t42 61q25 48 28.5 101.5t-16.5 76.5zM168 422q15 15 -12 34q-31 22 -59 10q-8 -3 -14 -10q-15 -19 -2 -20q7 0 21 8q12 8 18.5 6t18.5 -16
q19 -22 29 -12zM273 438q-4 12 -19.5 11t-22.5 -14q-9 -18 -5 -22t16 0.5t22 12t9 12.5zM370 359q-38 24 -50.5 25.5t-42.5 -12.5q-47 -23 -47 -78q0 -19 48 -68t72 -55q28 -6 73 0q40 6 62.5 29.5t14.5 52.5q-5 21 -19 24q-11 0 -12 -15q0 -18 -31 -43t-54 -25
q-38 0 -68.5 24t-30.5 54q0 18 21.5 43.5t35.5 25.5q15 0 16.5 -17t-11.5 -37.5t3 -34.5t42 -6q38 13 31 48.5t-53 64.5zM184 350.5q0 3.5 -4 6.5t-9.5 3t-9.5 -3t-4 -6.5t4 -6.5t9.5 -3t9.5 3t4 6.5zM181 272q-6 14 -27 14q-13 0 -14 -8q0 -1 1 -3q4 -11 19 -20t20 -4
q6 7 1 21zM597 219q0 10 -20 12.5t-28 -5.5q-7 -7 -7 -27q0 -15 -17.5 -34.5t-44.5 -33.5l-22 -12l39 -39l31 37q26 30 31.5 45.5t19.5 27.5q18 16 18 29z" />
    <glyph glyph-name="f" unicode="f" horiz-adv-x="746" 
d="M461 241q20 28 29 22q13 -7 8 -32t-22 -42q-15 -14 -25 -18t-28 0q-28 5 -40.5 16t-12.5 31q0 24 12 27.5t33 -12.5l26 -19zM309 300q4 11 18 13t26.5 -4.5t12.5 -17.5q0 -20 -26 -23q-25 -2 -32 16q-2 7 1 16zM489 354.5q11 13.5 18.5 13.5t18.5 -13q11 -14 6.5 -30
t-19.5 -16q-18 0 -26.5 16t2.5 29.5zM572 582q14 5 56 6q26 1 40 -4.5t36 -26.5q28 -25 31 -46t-12 -82q-4 -16 -50.5 -104t-73.5 -131q-5 -7 -14 -26t-17 -33.5t-13 -17.5q-10 -6 -10 -35q0 -24 -9.5 -38.5t-24.5 -14.5q-9 0 -27.5 7.5t-43.5 18.5t-42 16t-44 23t-43 18
q-14 0 -58 18.5t-64 18.5q-29 0 -78.5 27.5t-66.5 52.5q-21 31 -30 76q-10 46 6.5 84.5t53.5 55.5q34 15 80.5 23.5t55.5 1.5q5 -5 26.5 -10.5t56.5 -14t62 -17.5q33 -12 41 -11.5t25 16.5q23 21 23 31q0 16 50 61.5t78 56.5zM663 526q-23 19 -53.5 15t-59 -21t-52 -48.5
t-31.5 -67.5q-6 -30 -13 -41t-22 -17q-12 -6 -25.5 -2.5t-20 9.5t-26 16.5t-43.5 18.5q-23 6 -36 14t-16.5 12t-20.5 7t-52 3q-44 0 -60 -4.5t-37.5 -22.5t-26.5 -29.5t-4.5 -41t7 -42t30.5 -34.5q27 -24 54 -35t118 -35q54 -15 84 -32q20 -11 70 -28t63 -17q3 0 6.5 3.5
t8.5 11.5t9.5 17t13.5 25t17 30q13 23 52.5 97t52.5 98q23 39 29 82q4 28 1 38t-17 21z" />
    <glyph glyph-name="g" unicode="g" horiz-adv-x="598" 
d="M368 482q29 11 51 -0.5t22 -37.5q0 -23 -19 -60t-37 -50q-17 -12 -17 -24q0 -14 -20.5 -37t-32.5 -23q-10 0 -19 7t-31.5 20t-59.5 23q-44 13 -66 33t-31 56q-4 9 -2.5 15.5t3 9.5t8 6t12.5 4.5t17 6.5t21 11t47.5 1t64.5 -15q15 -6 47.5 22.5t41.5 31.5zM386 420
q0 18 -16 12q-15 -6 -25 -26q-13 -24 -30 -26.5t-77 9.5q-53 11 -58 5q-6 -6 -2 -14.5t17.5 -17.5t32.5 -16q28 -9 47 -17.5t24.5 -11.5t8.5 -3q7 0 42.5 48.5t35.5 57.5zM249 608q89 8 150 -5.5t118 -53.5q22 -15 40.5 -32.5t22.5 -26.5q8 -21 8 -100q0 -50 -4.5 -74
t-19.5 -56q-18 -40 -65.5 -94t-63.5 -54q-11 0 -44 -19q-28 -15 -56 -13.5t-96 20.5q-113 34 -165 111q-24 36 -44 87t-20 76q0 37 52 115t89 98q29 15 98 21zM446 537q-23 12 -47.5 15.5t-79.5 3.5q-58 1 -76 -2t-23 -13q-4 -7 -13 -11.5t-18 -4.5q-20 0 -53 -28t-48 -57
q-46 -92 54 -221q42 -55 116 -71l58 -14q67 -16 147 71q42 44 58.5 88t16.5 110q0 38 -5 52t-23 34q-27 28 -64 48z" />
    <glyph glyph-name="h" unicode="h" horiz-adv-x="837" 
d="M664 539q34 33 49.5 41.5t40.5 8.5q37 0 58 -22q16 -17 15.5 -32.5t-16.5 -55.5q-16 -39 -60.5 -124.5t-48.5 -93.5q-5 -13 -17.5 -17.5t-22.5 1t-10 18.5q0 12 -9 16.5t-37 7.5q-35 4 -44.5 2.5t-18.5 -1t-29 7.5q-39 13 -60.5 2.5t-42.5 -53.5q-16 -34 -18 -45.5
t7 -28.5t8 -23t-17 -19q-16 -12 -43 -14.5t-133 -0.5l-154 3l-27 26q-18 17 -22 28t0 36q5 43 30 61t79 18h56l33 48q33 49 81 101q32 34 50.5 45.5t57.5 21.5q45 12 108 10t71.5 -15.5t28 -4t57.5 46.5zM753 448q13 21 16 59.5t-8 41.5q-15 6 -53.5 -29t-55.5 -69
q-23 -45 -33.5 -45t-41.5 32q-20 20 -33.5 26t-39.5 6q-41 0 -60 -10q-10 -6 -12.5 -9t0.5 -7.5t8 -10t10 -19t6 -31.5l3 -37l74 -7q73 -6 114 -9l41 -2l25 48q25 49 40 72zM402 393q-4 14 -13.5 22.5t-18 7.5t-13.5 -12q-6 -16 -1.5 -31t18.5 -24q18 -11 27 1t1 36z
M369 314q-9 0 -38 27.5t-33 27.5q-11 0 -37.5 -35.5t-26.5 -50.5q0 -27 -16 -35.5t-52 0.5q-46 12 -76 -3.5t-30 -50.5q0 -30 27.5 -38.5t121.5 -5.5q77 2 96 6t31 19q18 21 18 35q0 8 21 56q19 47 -6 48z" />
    <glyph glyph-name="i" unicode="i" horiz-adv-x="736" 
d="M340 470q5 0 33 41t37 41q6 0 34 17t62 26q71 17 122.5 6t76.5 -48q18 -27 20.5 -61.5t-12.5 -54.5q-9 -13 -13 -45.5t-19 -45.5q-19 -17 -19 -32q0 -12 -18 -32t-18 -28t-14 -23t-14 -29q0 -18 -12 -22t-65 -73q-33 -41 -48.5 -54.5t-29.5 -13.5q-16 0 -22.5 2.5t-20 10
t-36.5 14.5q-48 16 -198 122q-32 23 -82 75.5t-63 76.5q-10 19 -11 73t9 77q9 24 43 57q21 19 35 26t35 7q28 0 56.5 -9.5t60 -26.5t34.5 -19q13 -5 25 -19t20 -25t12 -11zM659 529q-15 21 -85.5 22.5t-103.5 -17.5q-62 -35 -78 -81.5t24 -78.5q22 -20 40 -22.5t46 8.5
q14 5 18.5 12t2.5 22t-8 21t-22 9q-27 5 -26 14t29 12q27 2 45.5 -12t24.5 -43q6 -26 -6 -45.5t-44 -35.5q-18 -9 -31 -13t-22 -5.5t-21.5 3t-20 8t-26.5 14t-33 17.5q-11 5 -41 -18q-33 -24 -50.5 -28t-42.5 9q-66 34 -90 83.5t9 87.5q25 29 48 1q7 -8 6 -15t-8.5 -10.5
t-13 -9.5t-8 -13t6 -21t28.5 -34q25 -22 59 -19.5t43 28.5q4 14 1 26t-18 34q-43 64 -107 82.5t-101 -21.5q-43 -46 -34 -89.5t75 -109.5t167 -132t136 -66q12 0 73 59.5t61 71.5q0 8 24 37q47 55 72 142t2 116z" />
    <glyph glyph-name="j" unicode="j" horiz-adv-x="629" 
d="M207 482q6 6 16.5 6t27 -5t32.5 -11.5t41.5 -17t45.5 -17.5q77 -28 143 -71q39 -25 76.5 -95.5t27.5 -98.5q-6 -16 -50 -33.5t-79 -17.5q-24 0 -53 7t-47.5 14t-38.5 10.5t-25 -3.5q-14 -11 -14 -19q0 -10 -24.5 -44t-41.5 -46q-69 -53 -125.5 -64t-83.5 23
q-16 20 -21 39.5t-3 40.5t20 56t40.5 71t65.5 101q36 54 36 65.5t18 28.5q11 10 14 19.5t0 26.5q-5 28 2 35zM375 387q-14 0 -34.5 10t-36 19t-33 6.5t-27.5 -23.5q-42 -82 -82 -136q-134 -181 -93 -227q12 -13 38 -15.5t33 8.5q6 10 22 10q24 1 65.5 47.5t50.5 83.5
q6 21 28.5 37t39.5 10q17 -5 33 -23q10 -11 26.5 -14.5t60.5 -3.5q61 0 77.5 10t9.5 42q-8 30 -43 69.5t-68 52.5q-38 17 -44 27t-23 10z" />
    <glyph glyph-name="k" unicode="k" horiz-adv-x="576" 
d="M244 460q14 9 26 9q11 0 58.5 -23t62.5 -36q14 -12 46 -28q30 -14 66 -48t50 -59q13 -25 13 -57q0 -20 -6 -29t-24 -18q-39 -21 -104.5 -13t-99.5 38q-24 20 -41.5 12t-56.5 -57q-90 -112 -170 -112q-26 0 -34.5 4t-14.5 19q-12 33 4.5 88t58.5 118q21 33 86.5 109
t79.5 83z" />
    <glyph glyph-name="l" unicode="l" horiz-adv-x="595" 
d="M487 692q42 7 55.5 4t25.5 -21q16 -24 16 -98q1 -49 -3.5 -73.5t-22.5 -65.5q-26 -60 -45.5 -94t-50.5 -75q-18 -24 -27 -36.5t-11.5 -19t-15 -26.5t-33.5 -52q-10 -16 -20 -35.5t-15.5 -30t-13.5 -20.5t-15.5 -10.5t-21.5 5t-32.5 21.5t-46.5 42q-29 29 -54.5 49
t-31.5 20q-17 0 -50 33.5t-49 67.5q-13 27 -14.5 43t4.5 49q5 30 9 43.5t13 29.5t13 25q4 10 8.5 14.5t9.5 6t19.5 6t30.5 13.5q40 18 93 18t73 -19q17 -15 29 -13.5t12 18.5q0 30 65.5 103.5t96.5 77.5zM426 573q0 7 -9 7q-4 0 -7 -6.5t-3 -14.5q0 -14 3 -14q2 0 7 7
q9 14 9 21zM503 504q6 39 -2 38q-10 -3 -24 -59q-6 -27 -9.5 -41t-4 -23t1 -11t6.5 -2q7 0 16.5 28.5t15.5 69.5zM123 443q0 8 -8.5 8t-15 -9.5t-1.5 -14.5t15 1.5t10 14.5zM406 394q10 -10 16 4q4 11 -4 19q-11 11 -16 -4q-4 -11 4 -19zM86 315q0 13 -12 24.5t-19 4.5
q-15 -16 11 -58.5t71 -73t44 -16.5q-1 13 -44 55q-21 20 -36 39t-15 25zM297 310q0 13 -5 13q-10 -1 -21 -30q-19 -53 -2 -53q6 0 17 27t11 43zM343 172q0 9 -3.5 12t-10 -0.5t-13.5 -11.5q-14 -16 -4 -26q7 -6 18 3q13 11 13 23z" />
    <glyph glyph-name="m" unicode="m" horiz-adv-x="686" 
d="M40 413q16 16 28 18.5t47 -2.5q23 -3 40.5 -9t26 -11.5t27 -19.5t32.5 -23q22 -15 40.5 -34.5t28 -31.5t22 -20.5t29.5 -6.5t43 16q43 23 102 29q39 4 56.5 2t43.5 -15q38 -20 55 -44t15 -45t-16 -42.5t-31 -36.5t-35 -26q-41 -25 -88.5 -48.5t-55.5 -23.5t-61 -25
q-29 -14 -40.5 -23.5t-11.5 -20.5q0 -17 -10.5 -29.5t-25.5 -12.5q-12 0 -84 74t-78 92q-4 12 -18 26.5t-14 25.5t-16.5 35t-36.5 48.5t-33.5 58.5t-9.5 64q6 38 29 61zM357 213q-6 0 -81 68.5t-80 68.5q-4 0 -21 10.5t-34.5 20t-39 12t-33.5 -12.5q-16 -18 -16 -31
q0 -19 22 -61.5t42 -62.5q25 -26 31 -49q4 -17 53.5 -77t72.5 -76q11 -8 25 -4.5t54 24.5q136 69 150 69q8 0 47.5 24.5t60.5 43.5t20 44t-23.5 43t-79.5 20t-71 -15q-11 -13 -23 -13q-9 0 -39.5 -23t-36.5 -23z" />
    <glyph glyph-name="n" unicode="n" horiz-adv-x="696" 
d="M526 533q48 19 77.5 18t54.5 -22q20 -17 24.5 -29.5t3.5 -51.5q-1 -36 -8 -59t-31 -67q-38 -71 -91 -145q-3 -3 -7 -9q-15 -21 -21 -29.5t-17 -18t-15 -10.5t-18 -0.5t-23 3.5t-33 10q-7 2 -10 3q-18 5 -73.5 15t-116.5 25.5t-109 37.5q-31 14 -52 34.5t-40 54.5
q-11 20 -11 28.5t15 30.5q27 44 51 59t71 19q54 5 107.5 -5.5t69.5 -28.5q19 -19 32 -16t32 32q25 40 62.5 72.5t75.5 48.5zM625 495q-15 11 -30.5 11t-25.5 -12q-14 -19 -31.5 -54t-13.5 -39q5 -6 43 14q41 20 41 7q0 -11 -28 -34q-25 -21 -27.5 -26.5t11 -15.5t13.5 -14
t-14 -14q-17 -13 -11 -20q10 -10 28.5 8.5t40.5 62.5q47 93 4 126zM498 465q-8 -20 1 -19q10 1 17 14q5 9 -3 14q-10 6 -15 -9zM270 373q-9 7 -30.5 11t-39.5 3t-18 -7q0 -9 37.5 -20t51.5 -6q12 5 12 7.5t-13 11.5zM143 345q4 5 -5 16.5t-21 15.5t-22 -8q-3 -5 7 -12.5
t23.5 -11.5t17.5 0zM90 328q-11 13 -19 12.5t-8 -13.5q0 -11 13.5 -39.5t18.5 -28.5l28 22q35 33 -6 33q-15 0 -27 14zM546 254q-3 8 -16 11.5t-24.5 0.5t-11.5 -11q0 -12 17 -27q11 -11 16 -11t13 9q11 14 6 28zM210 249.5q0 9.5 -41.5 9.5t-41.5 -9.5t41.5 -9.5t41.5 9.5z
M347 208q0 6 -3 9.5t-8 3.5q-40 -4 -43 -17q-3 -10 27 -10q27 0 27 14zM418 207q-5 15 -16 15t-14.5 -15.5t4.5 -23.5q11 -11 21.5 -1t4.5 25zM494 180q0 13 -14 24q-8 7 -11.5 6t-7.5 -10q-5 -14 1 -24t19 -8.5t13 12.5z" />
    <glyph glyph-name="o" unicode="o" horiz-adv-x="835" 
d="M549 -12q18 3 33.5 12t24.5 17.5t18 15.5t17 5.5t17 -12.5q12 -15 -3 -42.5t-23 -32.5q-9 -5 -9 -27q0 -17 -15 -29t-34 -12q-12 0 -42 41t-25 49q5 9 41 15zM60 39q15 0 33 14t31 28t30 19.5t29 -11.5q7 -8 7 -19.5t-6 -37.5q-8 -30 -6.5 -39t15.5 -19
q18 -13 13.5 -24.5t-26.5 -11.5q-25 0 -87 18.5t-73 29.5q-10 11 -10 16t12 18q17 19 38 19zM489 185q20 8 25.5 7t19.5 -13q15 -14 15 -26.5t-17 -47.5q-19 -38 -19 -45.5t-20 -32.5q-12 -15 -26 -21.5t-41 -9.5q-31 -4 -44 0t-36 24q-42 35 -33 59t65 24q31 0 41 5.5
t26 31.5q10 15 22.5 28.5t21.5 16.5zM691 154q15 -3 33 10.5t31 29t30 23.5t29 -6q14 -11 11.5 -30.5t-10.5 -35.5t-17 -36t-9 -31q0 -15 -22.5 -32t-42.5 -17q-11 0 -51 44.5t-40 58.5q-1 14 17.5 21t40.5 1zM208 339q6 14 28.5 22t44 7.5t26.5 -7.5q3 -6 -9 -46.5
t-8 -51.5q7 -17 -9 -29t-45 -12q-27 0 -77 18t-68 34q-20 19 14 35q20 9 51 12q47 5 52 18zM531 364q25 4 45 20t34.5 28t31.5 10q16 -2 19 -8.5t1 -35.5q-2 -35 -11 -49.5t-9 -28.5q0 -29 -27.5 -39.5t-45.5 11.5q-12 14 -23 14q-12 0 -37 27.5t-20 35.5q6 9 42 15z
M385 555q48 65 81 32q11 -11 11 -29q-1 -26 -19.5 -77.5t-29.5 -57.5q-16 -10 -78.5 1.5t-86 28t-26 30t15 21t53.5 7.5q33 0 44 6t35 38zM174 637q21 17 39 7.5t13 -35.5q-25 -120 -37 -137q-6 -13 -25 -10.5t-36 10.5t-36.5 16.5t-28.5 8.5q-16 0 -36 23t-15 36
q4 11 21 14t53 4h14q23 1 31.5 8.5t17.5 24.5t25 30zM730 630q25 28 39.5 31t31.5 -16q12 -12 11 -20t-18 -34q-23 -37 -29 -62q-8 -33 -33 -36t-78 24q-39 19 -51 29t-12 25q0 16 8.5 19.5t46.5 5.5t51.5 7.5t32.5 26.5z" />
    <glyph glyph-name="p" unicode="p" horiz-adv-x="710" 
d="M390 139q15 17 28 18t19 -15q6 -14 -19 -36t-48.5 -27t-36.5 8t-7 23.5t26 10.5q21 0 38 18zM224 275q7 12 28.5 11t31.5 -14q7 -8 29.5 -15t29.5 -27q5 -14 2.5 -24.5t-15.5 -27.5q-23 -32 -48 -29q-20 2 -11 25q2 5 6 10q7 13 3 21t-27 28q-36 31 -29 42zM448 326
q14 33 32 24q18 -10 12 -44q-2 -7 -5 -14q-6 -17 -5 -25.5t10 -18.5q11 -12 10 -20t-12 -10.5t-30 1.5q-29 5 -40.5 26t3.5 38q14 17 25 43zM367 419q0 18 13.5 32.5t13.5 22.5q0 11 62.5 54t90.5 52q34 11 68 4t57 -30q21 -21 25 -35.5t3 -69.5q-1 -48 -6 -73t-21 -59
q-22 -48 -70 -123.5t-64 -89.5q-16 -12 -16 -24q0 -6 -13.5 -21.5t-29.5 -31.5t-30 -39.5t-14 -44.5q0 -20 -5 -23.5t-27 -1.5q-21 2 -36.5 12t-49.5 37.5t-75 54.5q-61 39 -118 89.5t-86 91.5q-22 30 -26 46t-2 67q2 66 19 86.5t78 29.5q108 18 201 -28q32 -16 45 -12.5
t13 27.5zM624 525q-23 14 -55.5 6t-63.5 -25.5t-56 -46.5t-32 -58q-13 -56 -37 -71.5t-54 10.5q-25 22 -71 34.5t-101 12.5q-48 0 -61 -3.5t-23 -19.5q-13 -20 -14 -52.5t10 -59.5q12 -28 68 -78.5t108 -88t59 -37.5q9 0 20 -14q7 -8 35 -24.5t36 -16.5q2 0 25.5 31.5
t51.5 68t39 45.5q15 12 15 24q0 7 8.5 16t23 26.5t25.5 40.5q9 18 25.5 48t25.5 52.5t16 58.5q21 98 -23 121z" />
    <glyph glyph-name="q" unicode="q" horiz-adv-x="782" 
d="M527 68q0 -6 -7 -12.5t-13.5 -17.5t-6.5 -28q0 -29 -19 -37t-45 10q-12 9 -27.5 23t-30 27t-60 42t-116.5 68q-37 20 -74 49.5t-55 53.5q-38 50 -49.5 82.5t-13.5 89.5q-1 52 2.5 65t23.5 30q19 16 33 18.5t59 -0.5q51 -3 99.5 -21t55.5 -36q5 -13 20 -13q10 0 22.5 -7.5
t22 -14t19 -10.5t16.5 3.5t11 28.5q6 26 38 61l60 65q24 26 60.5 44.5t72 26t66.5 3.5t44 -20q29 -33 34.5 -57t-3.5 -78q-6 -32 -12.5 -53t-11 -31t-16.5 -30t-20 -37q-10 -20 -32.5 -56.5t-38.5 -62.5t-16 -30q0 -6 -18.5 -25.5t-18.5 -24.5q0 -7 -27.5 -44t-27.5 -44z
M628 600q0 18 -33 -6q-11 -8 -12 -13t6.5 -12.5t12.5 -6t13 12.5q13 18 13 25zM711 484q12 31 6 75q-6 46 -32 14q-5 -6 -10 -15q-36 -58 6 -86q14 -9 18.5 -7t11.5 19zM555 516q-19 18 -31.5 17.5t-31.5 -20.5q-19 -21 -18 -32.5t25 -37.5t35 -26t25 27q14 28 13 41.5
t-17 30.5zM142 474q0 12 -8 13.5t-15 -8.5q-5 -9 0.5 -18.5t14 -4.5t8.5 18zM246 397q4 20 1.5 30t-12.5 18q-11 11 -16.5 9t-20.5 -21q-17 -23 -15.5 -40.5t22.5 -36.5q16 -14 25.5 -4.5t15.5 45.5zM105 383q0 8 -5.5 18t-13 15.5t-11.5 1.5q-6 -7 -5.5 -27t8.5 -31
q6 -9 9 -9t9 9q9 13 9 23zM646 401q-22 41 -49 0q-14 -21 -13.5 -30t15.5 -23q17 -16 28.5 -14.5t20.5 21.5q10 23 -2 46zM477 378q-36 34 -38 22q-1 -6 2 -20q5 -26 -9 -38q-13 -11 -14.5 -31t8 -36t24.5 -16q5 0 15 13.5t19 31.5l22 46zM319 320q-14 21 -22.5 19.5
t-21.5 -26.5q-10 -20 -10 -29t10 -31q9 -20 16.5 -25t14.5 3.5t15 31.5t8 33t-10 24zM176 302q-13 26 -24 26.5t-24 -23.5q-11 -22 -10.5 -29t15.5 -23q21 -22 32 -22q13 0 17 25.5t-6 45.5zM576 275q-8 13 -18.5 17.5t-14.5 -3.5q-55 -92 -32 -102q4 -2 11 -2
q16 0 39.5 38.5t14.5 51.5zM406 220q-13 14 -23 8.5t-23 -33.5q-15 -31 -15.5 -47t12.5 -26q7 -7 14.5 -2t22.5 26q19 28 22 45t-10 29zM481 104q0 33 -21 15q-6 -6 -15 -17q-21 -29 -10 -39q9 -9 27.5 7t18.5 34z" />
    <glyph glyph-name="r" unicode="r" horiz-adv-x="760" 
d="M391 270q12 14 34.5 15.5t42 -7t32 -25t7.5 -34.5q-9 -28 -32.5 -54t-40.5 -26q-59 0 -72 40t29 91zM464 238q-3 17 -24 19q-28 4 -38 -31q-2 -9 -3 -19q-1 -15 3 -21t15 -8q17 -2 34 19t13 41zM283 309q23 28 45 0q11 -13 5.5 -27t-21.5 -14q-20 0 -30 14t1 27zM461 350
q7 11 26.5 7.5t19.5 -16t-16.5 -17t-26.5 5.5q-9 9 -3 20zM595 602q39 12 48 12.5t35 -8.5q44 -15 58 -36.5t14 -72.5q0 -40 -6.5 -63.5t-32.5 -74.5q-37 -72 -73.5 -128t-105.5 -147q-33 -43 -46 -53.5t-35 -10.5q-20 0 -40 9t-68 37t-98 52q-137 67 -195 137
q-32 38 -39 102t18 84q12 10 71 29q70 23 143.5 11t111.5 -52q22 -23 28.5 -23t35.5 45q31 48 84 93.5t92 57.5zM668 562q-15 7 -23.5 7t-36.5 -8q-38 -11 -101 -77t-70 -102q-1 -7 -9 -16t-19 -15q-18 -10 -29 -5.5t-53 37.5l-58 45h-90q-77 0 -97 -11.5t-20 -57.5
q0 -21 8 -38t31 -45q25 -29 52.5 -48.5t92.5 -52.5q105 -54 115.5 -54t33.5 -18q15 -12 24 -13t30 6q27 10 40.5 19.5t19.5 19.5t22.5 38t39.5 58q81 107 120 230q12 42 7 64.5t-30 36.5z" />
    <glyph glyph-name="s" unicode="s" horiz-adv-x="634" 
d="M515 666q20 8 50.5 0t42.5 -24q15 -20 15.5 -55t-14.5 -69l-24 -57q-6 -15 -28.5 -47.5t-41.5 -59.5t-19 -32q0 -7 -50 -65q-20 -22 -31.5 -38t-15.5 -27.5t-1.5 -18t11.5 -9.5q6 -2 10 -7.5t4 -10.5q0 -13 19 -30q12 -11 15 -22.5t0 -37t-10.5 -39t-29 -32t-34 -23.5
t-29.5 -1q-25 5 -39 17t-7.5 22t29.5 0q16 -8 23.5 -5.5t22.5 20.5q20 23 20.5 43t-18.5 46q-12 17 -25 21t-21 -0.5t-18 -1t-19 20.5q-12 26 -59 43t-120 89q-62 60 -87.5 104.5t-25.5 91.5q0 28 6 42t29 38q24 25 36.5 31t40.5 6q39 0 91 -22.5t72 -48.5q14 -18 18.5 -19
t12.5 12q26 43 85.5 89.5t113.5 65.5zM564 610q-5 14 -21 14t-54 -14q-30 -10 -80 -51t-50 -55q0 -11 -23 -60q-15 -30 -23 -39t-21 -7q-12 2 -16 7.5t-2 19.5q2 25 -30.5 61t-66.5 46q-39 12 -53.5 9.5t-39.5 -25.5q-18 -17 -22 -27t0 -30q6 -31 17 -58q14 -33 68 -83
t98 -72q62 -30 79 -37t20 -4q10 11 81 102.5t78 102.5q37 59 54.5 116t6.5 84z" />
    <glyph glyph-name="t" unicode="t" horiz-adv-x="882" 
d="M511 323q22 23 45 25t35 -18q9 -15 -11 -53t-20 -52q0 -18 -11 -29q-10 -10 -35.5 -10.5t-31.5 9.5q-4 7 -18.5 14t-29.5 14t-27 16t-11.5 22.5t18.5 29.5q12 11 23.5 12t19.5 -3t22.5 0.5t31.5 22.5zM230 479q8 15 29.5 17.5t32.5 -10.5q8 -9 -0.5 -50.5t-21.5 -58.5
q-8 -9 -11 -23t-8.5 -20.5t-23.5 -8.5q-15 -2 -28 6t-38 35q-41 44 -39 67q2 16 10 20t41 6q27 1 39.5 5.5t17.5 14.5zM665 503q14 21 32 22.5t28.5 -15.5t5.5 -43q-5 -25 -34 -70.5t-43 -50.5q-7 -3 -10.5 1.5t-15 22t-29.5 36.5q-19 19 -24 30.5t-2 28.5q6 29 16 35t34 -6
q20 -10 26 -9t16 18zM598 612q16 15 53.5 23t84 3.5t78.5 -26.5q41 -28 50.5 -50.5t6.5 -86.5q-3 -58 -12.5 -80.5t-67.5 -107.5q-22 -31 -42.5 -54.5t-84.5 -87.5q-67 -68 -67 -77q0 -5 -14.5 -16.5t-36.5 -30.5t-35 -36q-18 -24 -52.5 -49.5t-49.5 -25.5q-5 0 -19 18.5
t-28 43.5q-19 34 -57.5 78.5t-115.5 120.5q-84 84 -119 125.5t-47.5 73t-12.5 78.5q0 118 107 165q51 23 92.5 21.5t91.5 -28.5q40 -21 85.5 -63.5t45.5 -59.5q0 -15 9.5 -18t14.5 11q8 21 49.5 67t57.5 51q20 6 35 18zM807 526q-9 24 -32 39t-48.5 18.5t-48 1t-30.5 -9.5
q-18 -14 -32 -14t-57 -37q-27 -22 -38 -40t-21 -51q-13 -48 -26 -61t-43 -11q-20 2 -26.5 8.5t-12.5 31.5q-13 58 -60 105t-110 66q-25 7 -38.5 5t-46.5 -18q-48 -24 -60 -52t-1 -91q10 -61 31.5 -84.5t21.5 -33.5q0 -9 40 -42.5t50 -33.5q18 0 106.5 -99.5t88.5 -119.5
q0 -24 46 19q27 26 31 26q8 0 119 115.5t121 133.5q7 15 17.5 23t16.5 12.5t6 14.5q0 15 13 30q14 16 22.5 71t0.5 78z" />
    <glyph glyph-name="u" unicode="u" horiz-adv-x="813" 
d="M229 598q9 0 92.5 -82.5t89.5 -82.5q8 0 25 21t18 30q0 7 9 16.5t18.5 23.5t9.5 32q0 33 30 59q26 21 38 2q3 -5 16 -8.5t36.5 -12.5t47.5 -26q40 -27 92 -77t52 -60q0 -9 -59.5 -100t-70.5 -98q-8 -5 -8 -20q0 -18 -61.5 -97t-75.5 -79q-15 0 -25 -11q-11 -10 -52.5 8.5
t-76.5 49.5q-42 37 -121 96.5t-126 99.5q-54 46 -85 70l-32 24l27 39q21 31 86.5 89.5t75.5 72.5q17 21 30 21zM604 543q-33 25 -52 16.5t-44 -60.5q-31 -63 -50 -87.5t-38 -24.5q-22 0 -57 24.5t-55 53.5q-9 13 -24.5 28.5t-28.5 23.5l-31 19l-71 -67q-71 -67 -73 -77
q-2 -6 31 -34.5t77.5 -64.5t57.5 -49q15 -14 49.5 -35t63.5 -47q26 -25 75 -51.5t69 -26.5q5 0 19 12t28 27l54 62q15 17 49 81.5t55 95.5q30 45 30 53q0 13 -46 61.5t-59 48.5q-6 0 -29 18z" />
    <glyph glyph-name="v" unicode="v" horiz-adv-x="711" 
d="M266 276q38 43 49.5 50t38.5 3q35 -5 70.5 -19.5t62 -33t48 -37.5t32.5 -32.5t11 -17.5q0 -2 -4 -11t-16 -22.5t-28.5 -23t-45 -9t-63.5 16.5q-34 16 -48 15t-52 -23q-37 -22 -57 -29t-35 -3q-54 13 -45.5 52.5t82.5 123.5zM412 262l-53 11q-17 4 -29 -4.5t-44 -50.5
q-45 -56 -35.5 -65t70.5 32q55 37 66 37q7 0 19 -11t22 -21t27 -13t35 12q12 8 9.5 14t-26.5 26q-34 28 -61 33zM83 387q7 0 18.5 23t17.5 23q7 0 26.5 13.5t52 30t67.5 21.5q107 15 211.5 -16t176.5 -99q10 -10 14.5 -13.5t10 -15t7 -17t5.5 -27.5t5.5 -38.5t5.5 -58.5
q1 -14 -6 -73q-5 -41 -13.5 -57t-44.5 -50q-21 -21 -40.5 -35.5t-25.5 -14.5q-16 0 -39 -12q-78 -44 -155.5 -64t-114.5 -6q-24 9 -47 9q-18 0 -52 18.5t-42 18.5q-15 0 -49 37.5t-38 58.5l-8 40t-8 39t-5.5 32.5t-2.5 33.5q0 41 28.5 120t44.5 79zM436 433q-3 3 -7.5 4.5
t-12.5 2t-17 1t-27 2t-37 3.5q-105 10 -179 -60t-87 -193q-4 -38 -1.5 -54.5t14.5 -38.5q19 -35 19 -51q0 -22 32 -46t72 -33q69 -16 151 -5.5t98 37.5q6 9 29 9q16 0 49.5 15.5t55.5 32.5q37 29 48.5 106t-10.5 138q-12 34 -26.5 48.5t-37.5 25t-39 24.5q-10 9 -45.5 18
t-41.5 14z" />
    <glyph glyph-name="w" unicode="w" horiz-adv-x="724" 
d="M414 402q10 12 36.5 27t55 18.5t39.5 -25.5q6 -18 -1.5 -34t-18.5 -31t-11 -26q-1 -13 -53 -70l-52 -58l-35 14q-34 14 -34 23t-49 32q-36 16 -76 53.5t-40 54.5q0 21 25 33.5t62 10.5t69 -19q60 -31 83 -3zM171 598q10 0 17.5 4t15.5 9.5t38.5 12t79.5 10.5
q151 13 219 -2.5t126 -76.5q25 -26 32.5 -42.5t11.5 -56.5q5 -48 -6 -105.5t-23.5 -91t-16.5 -38.5q-13 -15 -13 -25q0 -16 -63 -59.5t-102.5 -55t-114.5 -12.5t-118 9q-33 7 -56.5 21.5t-69.5 54.5q-63 54 -87 94.5t-29 102.5q-4 44 4.5 70t50.5 96q16 27 51 54t53 27z
M620 525q-8 0 -13.5 5.5t-21.5 17.5t-43 24q-37 18 -79 19.5t-73 -6t-65.5 -14t-54.5 -4.5q-27 4 -85 -26q-38 -19 -52.5 -32.5t-29.5 -43.5l-31 -61q-8 -16 -7.5 -44t8.5 -49q8 -23 67.5 -85.5t91.5 -83.5q22 -13 42.5 -17t73.5 -4q50 0 74.5 3t43 10t32.5 10q23 5 65.5 47
t56.5 75q15 34 23 50q9 16 8.5 95.5t-9.5 95.5q-4 7 -10.5 12.5t-11.5 5.5z" />
    <glyph glyph-name="x" unicode="x" horiz-adv-x="686" 
d="M269 359q20 23 33.5 28t35 -1.5t76.5 -33.5q61 -30 78 -51t4 -49q-9 -18 -20.5 -21.5t-64.5 -3.5q-47 0 -60.5 -3.5t-18.5 -15.5q-16 -43 -74 -62q-55 -17 -80 5q-10 10 -10 25q0 26 30.5 81.5t70.5 101.5zM259 589q23 13 74.5 7t113.5 -28q55 -20 79 -34.5t65 -55.5
q37 -35 52 -57.5t24 -51.5q30 -101 -30 -200t-176 -140q-59 -21 -71 -30q-16 -13 -83.5 -14.5t-85.5 10.5q-12 7 -51 19t-72 38q-67 55 -84 160t28 191q16 29 16 42q0 18 57 66.5t90 58.5q41 12 54 19zM450 506q-33 18 -105 22q-59 4 -91.5 -1t-63.5 -22q-25 -14 -65 -60
t-40 -61q0 -13 -14 -40q-13 -25 -13 -81t13 -73.5t14 -29.5q0 -18 26 -45t58 -44q40 -21 97.5 -24t82.5 15q21 15 81 22q37 5 56 12.5t43 27.5q33 27 50.5 58.5t29.5 84.5q17 74 -31 139q-15 20 -54 50.5t-74 49.5z" />
    <glyph glyph-name="y" unicode="y" horiz-adv-x="702" 
d="M186 600q27 22 60 36.5t60.5 20t52.5 8t37.5 2t13.5 -0.5q12 -4 74 -13q118 -19 163 -77.5t45 -192.5q0 -74 -4.5 -95.5t-27.5 -63.5q-29 -52 -90 -109.5t-88 -57.5q-23 0 -28 -8q-12 -20 -104.5 -11.5t-118.5 31.5q-16 14 -44 28q-38 19 -90.5 66t-57.5 66
q-3 14 -7 23.5t-7 14.5t-6 24.5t-6 54.5q-4 46 -2.5 62t10.5 24q15 12 15 21t48 63.5t56 54.5t46 29zM461 380q-3 6 -7 7t-11.5 -3.5t-17 -14.5t-24.5 -28q-33 -38 -45.5 -42.5t-29.5 14.5q-15 16 -52.5 23.5t-48.5 -4.5q-7 -7 8 -25t39 -33t39.5 -15t25.5 -5.5t13 -9
t11.5 0.5t24.5 19q26 26 53 67t22 49z" />
    <glyph glyph-name="z" unicode="z" horiz-adv-x="819" 
d="M344 587q30 9 86.5 7t87.5 -14q112 -41 183.5 -106.5t97.5 -150.5q9 -32 10 -53.5t-7 -69.5q-8 -53 -17 -70t-49 -56q-23 -22 -43.5 -38t-28.5 -16q-16 0 -21.5 -9t-53.5 -32q-74 -36 -214 -38t-214.5 32t-118.5 100.5t-28 119.5q2 5 17 72t25 82q8 13 17.5 50.5
t18.5 45.5q13 10 13 22q0 10 35.5 39.5t47.5 29.5q7 0 36 17.5t56 21.5q32 5 64 14zM587 310q-14 22 -99.5 44.5t-95.5 14.5q-8 -5 -69 -77q-98 -116 -42 -112q11 1 27 6q28 10 45.5 29t24.5 36t15.5 30t24.5 13t44 -18q44 -26 94 -13q38 10 36 34q-1 6 -5 13z" />
    <glyph glyph-name="braceleft" unicode="{" 
 />
    <glyph glyph-name="bar" unicode="|" 
 />
    <glyph glyph-name="braceright" unicode="}" 
 />
    <glyph glyph-name="asciitilde" unicode="~" 
 />
    <glyph glyph-name="cent" unicode="&#xa2;" 
 />
    <glyph glyph-name="sterling" unicode="&#xa3;" 
 />
    <glyph glyph-name="section" unicode="&#xa7;" 
 />
    <glyph glyph-name="guillemotleft" unicode="&#xab;" 
 />
    <glyph glyph-name="guillemotright" unicode="&#xbb;" 
 />
    <glyph glyph-name="questiondown" unicode="&#xbf;" 
 />
    <glyph glyph-name="Agrave" unicode="&#xc0;" 
 />
    <glyph glyph-name="Aacute" unicode="&#xc1;" 
 />
    <glyph glyph-name="Acircumflex" unicode="&#xc2;" 
 />
    <glyph glyph-name="Adieresis" unicode="&#xc4;" 
 />
    <glyph glyph-name="Ccedilla" unicode="&#xc7;" 
 />
    <glyph glyph-name="Egrave" unicode="&#xc8;" 
 />
    <glyph glyph-name="Eacute" unicode="&#xc9;" 
 />
    <glyph glyph-name="Ecircumflex" unicode="&#xca;" 
 />
    <glyph glyph-name="Edieresis" unicode="&#xcb;" 
 />
    <glyph glyph-name="Icircumflex" unicode="&#xce;" 
 />
    <glyph glyph-name="Idieresis" unicode="&#xcf;" 
 />
    <glyph glyph-name="Ntilde" unicode="&#xd1;" 
 />
    <glyph glyph-name="Oacute" unicode="&#xd3;" 
 />
    <glyph glyph-name="Ocircumflex" unicode="&#xd4;" 
 />
    <glyph glyph-name="Odieresis" unicode="&#xd6;" 
 />
    <glyph glyph-name="Ugrave" unicode="&#xd9;" 
 />
    <glyph glyph-name="Uacute" unicode="&#xda;" 
 />
    <glyph glyph-name="Ucircumflex" unicode="&#xdb;" 
 />
    <glyph glyph-name="Udieresis" unicode="&#xdc;" 
 />
    <glyph glyph-name="germandbls" unicode="&#xdf;" 
 />
    <glyph glyph-name="agrave" unicode="&#xe0;" 
 />
    <glyph glyph-name="aacute" unicode="&#xe1;" 
 />
    <glyph glyph-name="acircumflex" unicode="&#xe2;" 
 />
    <glyph glyph-name="adieresis" unicode="&#xe4;" 
 />
    <glyph glyph-name="ccedilla" unicode="&#xe7;" 
 />
    <glyph glyph-name="egrave" unicode="&#xe8;" 
 />
    <glyph glyph-name="eacute" unicode="&#xe9;" 
 />
    <glyph glyph-name="ecircumflex" unicode="&#xea;" 
 />
    <glyph glyph-name="edieresis" unicode="&#xeb;" 
 />
    <glyph glyph-name="icircumflex" unicode="&#xee;" 
 />
    <glyph glyph-name="idieresis" unicode="&#xef;" 
 />
    <glyph glyph-name="oacute" unicode="&#xf3;" 
 />
    <glyph glyph-name="ocircumflex" unicode="&#xf4;" 
 />
    <glyph glyph-name="odieresis" unicode="&#xf6;" 
 />
    <glyph glyph-name="ugrave" unicode="&#xf9;" 
 />
    <glyph glyph-name="uacute" unicode="&#xfa;" 
 />
    <glyph glyph-name="ucircumflex" unicode="&#xfb;" 
 />
    <glyph glyph-name="udieresis" unicode="&#xfc;" 
 />
    <glyph glyph-name="eogonek" unicode="&#x119;" 
 />
    <glyph glyph-name="quotedblleft" unicode="&#x201c;" 
 />
    <glyph glyph-name="quotedblbase" unicode="&#x201e;" 
 />
    <glyph glyph-name="bullet" unicode="&#x2022;" 
 />
    <glyph glyph-name="Euro" unicode="&#x20ac;" 
 />
  </font>
</defs>
</svg>
